<mxfile host="app.diagrams.net" modified="2021-01-19T17:48:49.642Z" agent="5.0 (Windows NT 10.0; Win64; x64) AppleWebKit/537.36 (KHTML, like Gecko) Chrome/87.0.4280.141 Safari/537.36" etag="iiyDa_6D2kYi3S3YpIim" version="14.1.8" type="github" pages="3">
  <diagram id="u19ZEMzb4xL3nT7dDBoH" name="Disposition">
    <mxGraphModel dx="1415" dy="761" grid="1" gridSize="10" guides="1" tooltips="1" connect="1" arrows="1" fold="1" page="1" pageScale="1" pageWidth="850" pageHeight="1100" math="0" shadow="0">
      <root>
        <mxCell id="4fSJCAxQdGxjCxuYD4hq-0" />
        <mxCell id="4fSJCAxQdGxjCxuYD4hq-1" parent="4fSJCAxQdGxjCxuYD4hq-0" />
        <mxCell id="eAxzqpU6aq9v9fL6Z6F0-0" value="1" style="rounded=0;whiteSpace=wrap;html=1;" parent="4fSJCAxQdGxjCxuYD4hq-1" vertex="1">
          <mxGeometry x="60" y="110" width="70" height="40" as="geometry" />
        </mxCell>
        <mxCell id="eAxzqpU6aq9v9fL6Z6F0-1" value="" style="endArrow=classic;html=1;exitX=0.5;exitY=1;exitDx=0;exitDy=0;entryX=0.5;entryY=0;entryDx=0;entryDy=0;" parent="4fSJCAxQdGxjCxuYD4hq-1" source="eAxzqpU6aq9v9fL6Z6F0-0" edge="1">
          <mxGeometry width="50" height="50" relative="1" as="geometry">
            <mxPoint x="380" y="490" as="sourcePoint" />
            <mxPoint x="95" y="170" as="targetPoint" />
          </mxGeometry>
        </mxCell>
        <mxCell id="eAxzqpU6aq9v9fL6Z6F0-2" value="2" style="rounded=0;whiteSpace=wrap;html=1;" parent="4fSJCAxQdGxjCxuYD4hq-1" vertex="1">
          <mxGeometry x="60" y="170" width="70" height="40" as="geometry" />
        </mxCell>
        <mxCell id="eAxzqpU6aq9v9fL6Z6F0-3" value="" style="endArrow=classic;html=1;exitX=0.5;exitY=1;exitDx=0;exitDy=0;entryX=0.5;entryY=0;entryDx=0;entryDy=0;" parent="4fSJCAxQdGxjCxuYD4hq-1" source="eAxzqpU6aq9v9fL6Z6F0-2" edge="1">
          <mxGeometry width="50" height="50" relative="1" as="geometry">
            <mxPoint x="380" y="550" as="sourcePoint" />
            <mxPoint x="95" y="230" as="targetPoint" />
          </mxGeometry>
        </mxCell>
        <mxCell id="eAxzqpU6aq9v9fL6Z6F0-5" value="" style="endArrow=classic;html=1;exitX=0.5;exitY=1;exitDx=0;exitDy=0;entryX=0.5;entryY=0;entryDx=0;entryDy=0;" parent="4fSJCAxQdGxjCxuYD4hq-1" edge="1">
          <mxGeometry width="50" height="50" relative="1" as="geometry">
            <mxPoint x="95" y="270" as="sourcePoint" />
            <mxPoint x="95" y="290" as="targetPoint" />
          </mxGeometry>
        </mxCell>
        <mxCell id="iqhRs4H_UmKiOqqBwbQ3-12" style="edgeStyle=orthogonalEdgeStyle;rounded=0;orthogonalLoop=1;jettySize=auto;html=1;exitX=0.5;exitY=1;exitDx=0;exitDy=0;entryX=0.5;entryY=0;entryDx=0;entryDy=0;fontSize=12;" parent="4fSJCAxQdGxjCxuYD4hq-1" source="eAxzqpU6aq9v9fL6Z6F0-6" target="eAxzqpU6aq9v9fL6Z6F0-16" edge="1">
          <mxGeometry relative="1" as="geometry" />
        </mxCell>
        <mxCell id="eAxzqpU6aq9v9fL6Z6F0-6" value="3.a" style="rounded=0;whiteSpace=wrap;html=1;" parent="4fSJCAxQdGxjCxuYD4hq-1" vertex="1">
          <mxGeometry x="60" y="290" width="70" height="40" as="geometry" />
        </mxCell>
        <mxCell id="eAxzqpU6aq9v9fL6Z6F0-12" value="4.a.i" style="rounded=0;whiteSpace=wrap;html=1;" parent="4fSJCAxQdGxjCxuYD4hq-1" vertex="1">
          <mxGeometry x="60" y="480" width="70" height="40" as="geometry" />
        </mxCell>
        <mxCell id="eAxzqpU6aq9v9fL6Z6F0-13" value="" style="endArrow=classic;html=1;exitX=0.5;exitY=1;exitDx=0;exitDy=0;" parent="4fSJCAxQdGxjCxuYD4hq-1" source="eAxzqpU6aq9v9fL6Z6F0-12" edge="1">
          <mxGeometry width="50" height="50" relative="1" as="geometry">
            <mxPoint x="320" y="860" as="sourcePoint" />
            <mxPoint x="95" y="540" as="targetPoint" />
          </mxGeometry>
        </mxCell>
        <mxCell id="eAxzqpU6aq9v9fL6Z6F0-14" value="4.a" style="rounded=0;whiteSpace=wrap;html=1;" parent="4fSJCAxQdGxjCxuYD4hq-1" vertex="1">
          <mxGeometry x="60" y="420" width="70" height="40" as="geometry" />
        </mxCell>
        <mxCell id="eAxzqpU6aq9v9fL6Z6F0-15" value="" style="endArrow=classic;html=1;exitX=0.5;exitY=1;exitDx=0;exitDy=0;entryX=0.5;entryY=0;entryDx=0;entryDy=0;" parent="4fSJCAxQdGxjCxuYD4hq-1" source="eAxzqpU6aq9v9fL6Z6F0-14" edge="1">
          <mxGeometry width="50" height="50" relative="1" as="geometry">
            <mxPoint x="380" y="800" as="sourcePoint" />
            <mxPoint x="95" y="480" as="targetPoint" />
          </mxGeometry>
        </mxCell>
        <mxCell id="iqhRs4H_UmKiOqqBwbQ3-14" style="edgeStyle=orthogonalEdgeStyle;rounded=0;orthogonalLoop=1;jettySize=auto;html=1;exitX=0.5;exitY=1;exitDx=0;exitDy=0;entryX=0.5;entryY=0;entryDx=0;entryDy=0;fontSize=12;" parent="4fSJCAxQdGxjCxuYD4hq-1" source="eAxzqpU6aq9v9fL6Z6F0-16" target="eAxzqpU6aq9v9fL6Z6F0-14" edge="1">
          <mxGeometry relative="1" as="geometry" />
        </mxCell>
        <mxCell id="eAxzqpU6aq9v9fL6Z6F0-16" value="4" style="rhombus;whiteSpace=wrap;html=1;" parent="4fSJCAxQdGxjCxuYD4hq-1" vertex="1">
          <mxGeometry x="70" y="350" width="50" height="50" as="geometry" />
        </mxCell>
        <mxCell id="eAxzqpU6aq9v9fL6Z6F0-22" value="4.b" style="rounded=0;whiteSpace=wrap;html=1;" parent="4fSJCAxQdGxjCxuYD4hq-1" vertex="1">
          <mxGeometry x="160" y="355" width="50" height="40" as="geometry" />
        </mxCell>
        <mxCell id="eAxzqpU6aq9v9fL6Z6F0-23" value="" style="endArrow=classic;html=1;exitX=1;exitY=0.5;exitDx=0;exitDy=0;entryX=0;entryY=0.5;entryDx=0;entryDy=0;" parent="4fSJCAxQdGxjCxuYD4hq-1" source="eAxzqpU6aq9v9fL6Z6F0-16" target="eAxzqpU6aq9v9fL6Z6F0-22" edge="1">
          <mxGeometry width="50" height="50" relative="1" as="geometry">
            <mxPoint x="380" y="365" as="sourcePoint" />
            <mxPoint x="430" y="315" as="targetPoint" />
          </mxGeometry>
        </mxCell>
        <mxCell id="eAxzqpU6aq9v9fL6Z6F0-26" value="4.b.ii" style="rounded=0;whiteSpace=wrap;html=1;" parent="4fSJCAxQdGxjCxuYD4hq-1" vertex="1">
          <mxGeometry x="270" y="390" width="50" height="40" as="geometry" />
        </mxCell>
        <mxCell id="eAxzqpU6aq9v9fL6Z6F0-27" value="4.b.i" style="rounded=0;whiteSpace=wrap;html=1;" parent="4fSJCAxQdGxjCxuYD4hq-1" vertex="1">
          <mxGeometry x="270" y="315" width="50" height="40" as="geometry" />
        </mxCell>
        <mxCell id="eAxzqpU6aq9v9fL6Z6F0-28" value="" style="edgeStyle=elbowEdgeStyle;elbow=horizontal;endArrow=classic;html=1;exitX=1;exitY=0.5;exitDx=0;exitDy=0;entryX=0;entryY=0.5;entryDx=0;entryDy=0;rounded=0;" parent="4fSJCAxQdGxjCxuYD4hq-1" source="eAxzqpU6aq9v9fL6Z6F0-22" target="eAxzqpU6aq9v9fL6Z6F0-26" edge="1">
          <mxGeometry width="50" height="50" relative="1" as="geometry">
            <mxPoint x="380" y="365" as="sourcePoint" />
            <mxPoint x="430" y="315" as="targetPoint" />
          </mxGeometry>
        </mxCell>
        <mxCell id="eAxzqpU6aq9v9fL6Z6F0-29" value="" style="edgeStyle=elbowEdgeStyle;elbow=horizontal;endArrow=classic;html=1;entryX=0;entryY=0.5;entryDx=0;entryDy=0;rounded=0;" parent="4fSJCAxQdGxjCxuYD4hq-1" source="eAxzqpU6aq9v9fL6Z6F0-22" target="eAxzqpU6aq9v9fL6Z6F0-27" edge="1">
          <mxGeometry width="50" height="50" relative="1" as="geometry">
            <mxPoint x="380" y="365" as="sourcePoint" />
            <mxPoint x="430" y="315" as="targetPoint" />
          </mxGeometry>
        </mxCell>
        <mxCell id="eAxzqpU6aq9v9fL6Z6F0-31" value="1. RMM service scans the RMM table nightly for records that are&lt;br&gt;eligible for disposition within xx days, generating a “Disposition&lt;br&gt;Eligible” report.&lt;br&gt;2. Eva dashboard presents this data to the users each morning.&lt;br&gt;Data is broken down by Dataset.&lt;br&gt;3. IMOs drill into the report and review the nature of the dataset and&lt;br&gt;a sampling of objects to validate they were correctly tagged.&lt;br&gt;&lt;blockquote style=&quot;margin: 0 0 0 40px ; border: none ; padding: 0px&quot;&gt;a. If the items are correctly tagged, the IMO moves&lt;br&gt;forward.&lt;br&gt;b. If the items are not correctly tagged, the IMO reviews&lt;br&gt;the data, and reviews the rules used to apply the RCS&lt;br&gt;value to determine where the issue stems from.&lt;/blockquote&gt;&lt;blockquote style=&quot;margin: 0 0 0 40px ; border: none ; padding: 0px&quot;&gt;&lt;blockquote style=&quot;margin: 0 0 0 40px ; border: none ; padding: 0px&quot;&gt;i. The IMO applies the correct RCS value to&lt;/blockquote&gt;&lt;blockquote style=&quot;margin: 0 0 0 40px ; border: none ; padding: 0px&quot;&gt;those updates which updates the disposition&lt;/blockquote&gt;&lt;blockquote style=&quot;margin: 0 0 0 40px ; border: none ; padding: 0px&quot;&gt;elable date.&lt;/blockquote&gt;&lt;blockquote style=&quot;margin: 0 0 0 40px ; border: none ; padding: 0px&quot;&gt;ii. The IMO updates the rule to correct for any&lt;/blockquote&gt;&lt;blockquote style=&quot;margin: 0 0 0 40px ; border: none ; padding: 0px&quot;&gt;issues. This updates “date forward” records.&lt;/blockquote&gt;&lt;blockquote style=&quot;margin: 0 0 0 40px ; border: none ; padding: 0px&quot;&gt;iii. The IMO with input from leadership, runs the&lt;/blockquote&gt;&lt;/blockquote&gt;4. IMO notifies the data owner that there are xxxx files eligable for&lt;br&gt;dispostion and provides the owner with a link to the dataset and&lt;br&gt;the eligible items. The owner has xx days to review the objects.&lt;br&gt;&lt;blockquote style=&quot;margin: 0 0 0 40px ; border: none ; padding: 0px&quot;&gt;a. If the owner concurs, the DMO notes the concurrence&lt;br&gt;and performs a bulk update to the RMM data.&lt;/blockquote&gt;&lt;blockquote style=&quot;margin: 0 0 0 40px ; border: none ; padding: 0px&quot;&gt;&lt;blockquote style=&quot;margin: 0 0 0 40px ; border: none ; padding: 0px&quot;&gt;i. RMM posts a message to one or more&lt;/blockquote&gt;&lt;blockquote style=&quot;margin: 0 0 0 40px ; border: none ; padding: 0px&quot;&gt;queues.&lt;/blockquote&gt;&lt;blockquote style=&quot;margin: 0 0 0 40px ; border: none ; padding: 0px&quot;&gt;ii. The hosting system acknowledges the&lt;/blockquote&gt;&lt;blockquote style=&quot;margin: 0 0 0 40px ; border: none ; padding: 0px&quot;&gt;message.&lt;/blockquote&gt;&lt;blockquote style=&quot;margin: 0 0 0 40px ; border: none ; padding: 0px&quot;&gt;iii. The acknowledgement is stored in the in the&lt;/blockquote&gt;&lt;blockquote style=&quot;margin: 0 0 0 40px ; border: none ; padding: 0px&quot;&gt;RMM Table&lt;/blockquote&gt;&lt;blockquote style=&quot;margin: 0 0 0 40px ; border: none ; padding: 0px&quot;&gt;iv. The host system then takes action.&lt;/blockquote&gt;&lt;/blockquote&gt;&lt;blockquote style=&quot;margin: 0 0 0 40px ; border: none ; padding: 0px&quot;&gt;&lt;blockquote style=&quot;margin: 0 0 0 40px ; border: none ; padding: 0px&quot;&gt;&lt;blockquote style=&quot;margin: 0 0 0 40px ; border: none ; padding: 0px&quot;&gt;1. Delete&lt;/blockquote&gt;&lt;/blockquote&gt;&lt;blockquote style=&quot;margin: 0 0 0 40px ; border: none ; padding: 0px&quot;&gt;&lt;blockquote style=&quot;margin: 0 0 0 40px ; border: none ; padding: 0px&quot;&gt;2. Transfer&lt;/blockquote&gt;&lt;/blockquote&gt;&lt;/blockquote&gt;&lt;blockquote style=&quot;margin: 0 0 0 40px ; border: none ; padding: 0px&quot;&gt;&lt;blockquote style=&quot;margin: 0 0 0 40px ; border: none ; padding: 0px&quot;&gt;v. The host system publishes the action back on&lt;/blockquote&gt;&lt;blockquote style=&quot;margin: 0 0 0 40px ; border: none ; padding: 0px&quot;&gt;the queue and updates RMM&lt;/blockquote&gt;b. If the owner does not concur&lt;/blockquote&gt;&lt;blockquote style=&quot;margin: 0 0 0 40px ; border: none ; padding: 0px&quot;&gt;&lt;blockquote style=&quot;margin: 0 0 0 40px ; border: none ; padding: 0px&quot;&gt;i. The IMO would work with leadership to accept&lt;/blockquote&gt;&lt;blockquote style=&quot;margin: 0 0 0 40px ; border: none ; padding: 0px&quot;&gt;the non-concurrence and update the&lt;/blockquote&gt;&lt;blockquote style=&quot;margin: 0 0 0 40px ; border: none ; padding: 0px&quot;&gt;disposition eligible date&lt;/blockquote&gt;&lt;blockquote style=&quot;margin: 0 0 0 40px ; border: none ; padding: 0px&quot;&gt;ii. The IMO and leadership would notify the&lt;/blockquote&gt;&lt;blockquote style=&quot;margin: 0 0 0 40px ; border: none ; padding: 0px&quot;&gt;owner that the data in fact must be deleted&lt;/blockquote&gt;&lt;blockquote style=&quot;margin: 0 0 0 40px ; border: none ; padding: 0px&quot;&gt;and would override the Owners position. The&lt;/blockquote&gt;&lt;blockquote style=&quot;margin: 0 0 0 40px ; border: none ; padding: 0px&quot;&gt;DMO notes the non-concurrence, adds the&lt;/blockquote&gt;&lt;blockquote style=&quot;margin: 0 0 0 40px ; border: none ; padding: 0px&quot;&gt;overriding leadership decision, and performs a&lt;/blockquote&gt;&lt;blockquote style=&quot;margin: 0 0 0 40px ; border: none ; padding: 0px&quot;&gt;bulk update to the RMM data.&lt;/blockquote&gt;&lt;/blockquote&gt;&lt;blockquote style=&quot;margin: 0 0 0 40px ; border: none ; padding: 0px&quot;&gt;&lt;blockquote style=&quot;margin: 0 0 0 40px ; border: none ; padding: 0px&quot;&gt;&lt;blockquote style=&quot;margin: 0 0 0 40px ; border: none ; padding: 0px&quot;&gt;1. RMM posts a message to one or&lt;/blockquote&gt;&lt;/blockquote&gt;&lt;blockquote style=&quot;margin: 0 0 0 40px ; border: none ; padding: 0px&quot;&gt;&lt;blockquote style=&quot;margin: 0 0 0 40px ; border: none ; padding: 0px&quot;&gt;more queues.&lt;/blockquote&gt;&lt;/blockquote&gt;&lt;blockquote style=&quot;margin: 0 0 0 40px ; border: none ; padding: 0px&quot;&gt;&lt;blockquote style=&quot;margin: 0 0 0 40px ; border: none ; padding: 0px&quot;&gt;2. The hosting system acknowledges&lt;/blockquote&gt;&lt;/blockquote&gt;&lt;blockquote style=&quot;margin: 0 0 0 40px ; border: none ; padding: 0px&quot;&gt;&lt;blockquote style=&quot;margin: 0 0 0 40px ; border: none ; padding: 0px&quot;&gt;the message.&lt;/blockquote&gt;&lt;/blockquote&gt;&lt;blockquote style=&quot;margin: 0 0 0 40px ; border: none ; padding: 0px&quot;&gt;&lt;blockquote style=&quot;margin: 0 0 0 40px ; border: none ; padding: 0px&quot;&gt;3. The acknowledgement is stored in&lt;/blockquote&gt;&lt;/blockquote&gt;&lt;blockquote style=&quot;margin: 0 0 0 40px ; border: none ; padding: 0px&quot;&gt;&lt;blockquote style=&quot;margin: 0 0 0 40px ; border: none ; padding: 0px&quot;&gt;the in the RMM Table&lt;/blockquote&gt;&lt;/blockquote&gt;&lt;blockquote style=&quot;margin: 0 0 0 40px ; border: none ; padding: 0px&quot;&gt;&lt;blockquote style=&quot;margin: 0 0 0 40px ; border: none ; padding: 0px&quot;&gt;4. The host system then takes action.&lt;/blockquote&gt;&lt;/blockquote&gt;&lt;blockquote style=&quot;margin: 0 0 0 40px ; border: none ; padding: 0px&quot;&gt;&lt;blockquote style=&quot;margin: 0 0 0 40px ; border: none ; padding: 0px&quot;&gt;a. Delete&lt;/blockquote&gt;&lt;/blockquote&gt;&lt;blockquote style=&quot;margin: 0 0 0 40px ; border: none ; padding: 0px&quot;&gt;&lt;blockquote style=&quot;margin: 0 0 0 40px ; border: none ; padding: 0px&quot;&gt;b. Transfer&lt;/blockquote&gt;&lt;/blockquote&gt;&lt;blockquote style=&quot;margin: 0 0 0 40px ; border: none ; padding: 0px&quot;&gt;&lt;blockquote style=&quot;margin: 0 0 0 40px ; border: none ; padding: 0px&quot;&gt;5. The host system publishes the&lt;/blockquote&gt;&lt;/blockquote&gt;&lt;blockquote style=&quot;margin: 0 0 0 40px ; border: none ; padding: 0px&quot;&gt;&lt;blockquote style=&quot;margin: 0 0 0 40px ; border: none ; padding: 0px&quot;&gt;action back on the queue and&lt;/blockquote&gt;&lt;/blockquote&gt;&lt;blockquote style=&quot;margin: 0 0 0 40px ; border: none ; padding: 0px&quot;&gt;&lt;blockquote style=&quot;margin: 0 0 0 40px ; border: none ; padding: 0px&quot;&gt;updates RMM&lt;/blockquote&gt;&lt;/blockquote&gt;&lt;/blockquote&gt;&lt;br&gt;iii." style="text;strokeColor=none;fillColor=none;align=left;verticalAlign=top;rounded=0;fontSize=13;whiteSpace=wrap;html=1;" parent="4fSJCAxQdGxjCxuYD4hq-1" vertex="1">
          <mxGeometry x="400" y="105" width="420" height="890" as="geometry" />
        </mxCell>
        <mxCell id="iqhRs4H_UmKiOqqBwbQ3-8" style="edgeStyle=orthogonalEdgeStyle;rounded=0;orthogonalLoop=1;jettySize=auto;html=1;exitX=1;exitY=0.5;exitDx=0;exitDy=0;entryX=0;entryY=0.5;entryDx=0;entryDy=0;fontSize=12;" parent="4fSJCAxQdGxjCxuYD4hq-1" source="iqhRs4H_UmKiOqqBwbQ3-1" target="iqhRs4H_UmKiOqqBwbQ3-2" edge="1">
          <mxGeometry relative="1" as="geometry" />
        </mxCell>
        <mxCell id="iqhRs4H_UmKiOqqBwbQ3-1" value="3.b" style="rounded=0;whiteSpace=wrap;html=1;" parent="4fSJCAxQdGxjCxuYD4hq-1" vertex="1">
          <mxGeometry x="150" y="230" width="40" height="40" as="geometry" />
        </mxCell>
        <mxCell id="iqhRs4H_UmKiOqqBwbQ3-9" style="edgeStyle=orthogonalEdgeStyle;rounded=0;orthogonalLoop=1;jettySize=auto;html=1;exitX=1;exitY=0.5;exitDx=0;exitDy=0;entryX=0;entryY=0.5;entryDx=0;entryDy=0;fontSize=12;" parent="4fSJCAxQdGxjCxuYD4hq-1" source="iqhRs4H_UmKiOqqBwbQ3-2" target="iqhRs4H_UmKiOqqBwbQ3-3" edge="1">
          <mxGeometry relative="1" as="geometry" />
        </mxCell>
        <mxCell id="iqhRs4H_UmKiOqqBwbQ3-2" value="3.b.i" style="rounded=0;whiteSpace=wrap;html=1;" parent="4fSJCAxQdGxjCxuYD4hq-1" vertex="1">
          <mxGeometry x="210" y="230" width="40" height="40" as="geometry" />
        </mxCell>
        <mxCell id="iqhRs4H_UmKiOqqBwbQ3-10" style="edgeStyle=orthogonalEdgeStyle;rounded=0;orthogonalLoop=1;jettySize=auto;html=1;exitX=1;exitY=0.5;exitDx=0;exitDy=0;entryX=0;entryY=0.5;entryDx=0;entryDy=0;fontSize=12;" parent="4fSJCAxQdGxjCxuYD4hq-1" source="iqhRs4H_UmKiOqqBwbQ3-3" target="iqhRs4H_UmKiOqqBwbQ3-4" edge="1">
          <mxGeometry relative="1" as="geometry" />
        </mxCell>
        <mxCell id="iqhRs4H_UmKiOqqBwbQ3-3" value="3.b.ii" style="rounded=0;whiteSpace=wrap;html=1;" parent="4fSJCAxQdGxjCxuYD4hq-1" vertex="1">
          <mxGeometry x="270" y="230" width="40" height="40" as="geometry" />
        </mxCell>
        <mxCell id="iqhRs4H_UmKiOqqBwbQ3-4" value="3.b.iii" style="rounded=0;whiteSpace=wrap;html=1;" parent="4fSJCAxQdGxjCxuYD4hq-1" vertex="1">
          <mxGeometry x="325" y="230" width="40" height="40" as="geometry" />
        </mxCell>
        <mxCell id="iqhRs4H_UmKiOqqBwbQ3-7" style="edgeStyle=orthogonalEdgeStyle;rounded=0;orthogonalLoop=1;jettySize=auto;html=1;exitX=1;exitY=0.5;exitDx=0;exitDy=0;entryX=0;entryY=0.5;entryDx=0;entryDy=0;fontSize=12;" parent="4fSJCAxQdGxjCxuYD4hq-1" source="iqhRs4H_UmKiOqqBwbQ3-5" target="iqhRs4H_UmKiOqqBwbQ3-1" edge="1">
          <mxGeometry relative="1" as="geometry" />
        </mxCell>
        <mxCell id="iqhRs4H_UmKiOqqBwbQ3-5" value="3" style="rhombus;whiteSpace=wrap;html=1;fontSize=12;align=center;" parent="4fSJCAxQdGxjCxuYD4hq-1" vertex="1">
          <mxGeometry x="75" y="230" width="40" height="40" as="geometry" />
        </mxCell>
        <mxCell id="iqhRs4H_UmKiOqqBwbQ3-15" value="4.a.iii" style="rounded=0;whiteSpace=wrap;html=1;" parent="4fSJCAxQdGxjCxuYD4hq-1" vertex="1">
          <mxGeometry x="60" y="600" width="70" height="40" as="geometry" />
        </mxCell>
        <mxCell id="iqhRs4H_UmKiOqqBwbQ3-16" value="" style="endArrow=classic;html=1;exitX=0.5;exitY=1;exitDx=0;exitDy=0;" parent="4fSJCAxQdGxjCxuYD4hq-1" source="iqhRs4H_UmKiOqqBwbQ3-15" edge="1">
          <mxGeometry width="50" height="50" relative="1" as="geometry">
            <mxPoint x="320" y="980" as="sourcePoint" />
            <mxPoint x="95" y="660" as="targetPoint" />
          </mxGeometry>
        </mxCell>
        <mxCell id="iqhRs4H_UmKiOqqBwbQ3-17" value="4.a.ii" style="rounded=0;whiteSpace=wrap;html=1;" parent="4fSJCAxQdGxjCxuYD4hq-1" vertex="1">
          <mxGeometry x="60" y="540" width="70" height="40" as="geometry" />
        </mxCell>
        <mxCell id="iqhRs4H_UmKiOqqBwbQ3-18" value="" style="endArrow=classic;html=1;exitX=0.5;exitY=1;exitDx=0;exitDy=0;entryX=0.5;entryY=0;entryDx=0;entryDy=0;" parent="4fSJCAxQdGxjCxuYD4hq-1" source="iqhRs4H_UmKiOqqBwbQ3-17" edge="1">
          <mxGeometry width="50" height="50" relative="1" as="geometry">
            <mxPoint x="380" y="920" as="sourcePoint" />
            <mxPoint x="95" y="600" as="targetPoint" />
          </mxGeometry>
        </mxCell>
        <mxCell id="iqhRs4H_UmKiOqqBwbQ3-19" value="4.a.v" style="rounded=0;whiteSpace=wrap;html=1;" parent="4fSJCAxQdGxjCxuYD4hq-1" vertex="1">
          <mxGeometry x="60" y="720" width="70" height="40" as="geometry" />
        </mxCell>
        <mxCell id="iqhRs4H_UmKiOqqBwbQ3-21" value="4.a.iv" style="rounded=0;whiteSpace=wrap;html=1;" parent="4fSJCAxQdGxjCxuYD4hq-1" vertex="1">
          <mxGeometry x="60" y="660" width="70" height="40" as="geometry" />
        </mxCell>
        <mxCell id="iqhRs4H_UmKiOqqBwbQ3-22" value="" style="endArrow=classic;html=1;exitX=0.5;exitY=1;exitDx=0;exitDy=0;entryX=0.5;entryY=0;entryDx=0;entryDy=0;" parent="4fSJCAxQdGxjCxuYD4hq-1" source="iqhRs4H_UmKiOqqBwbQ3-21" edge="1">
          <mxGeometry width="50" height="50" relative="1" as="geometry">
            <mxPoint x="380" y="1040" as="sourcePoint" />
            <mxPoint x="95" y="720" as="targetPoint" />
          </mxGeometry>
        </mxCell>
        <mxCell id="iqhRs4H_UmKiOqqBwbQ3-23" value="4.a.iv.2" style="rounded=0;whiteSpace=wrap;html=1;" parent="4fSJCAxQdGxjCxuYD4hq-1" vertex="1">
          <mxGeometry x="190" y="697.5" width="50" height="40" as="geometry" />
        </mxCell>
        <mxCell id="iqhRs4H_UmKiOqqBwbQ3-24" value="4.a.iv.1" style="rounded=0;whiteSpace=wrap;html=1;" parent="4fSJCAxQdGxjCxuYD4hq-1" vertex="1">
          <mxGeometry x="190" y="622.5" width="50" height="40" as="geometry" />
        </mxCell>
        <mxCell id="iqhRs4H_UmKiOqqBwbQ3-25" value="" style="edgeStyle=elbowEdgeStyle;elbow=horizontal;endArrow=classic;html=1;exitX=1;exitY=0.5;exitDx=0;exitDy=0;entryX=0;entryY=0.5;entryDx=0;entryDy=0;rounded=0;" parent="4fSJCAxQdGxjCxuYD4hq-1" target="iqhRs4H_UmKiOqqBwbQ3-23" edge="1">
          <mxGeometry width="50" height="50" relative="1" as="geometry">
            <mxPoint x="130" y="682.5" as="sourcePoint" />
            <mxPoint x="350" y="622.5" as="targetPoint" />
          </mxGeometry>
        </mxCell>
        <mxCell id="iqhRs4H_UmKiOqqBwbQ3-26" value="" style="edgeStyle=elbowEdgeStyle;elbow=horizontal;endArrow=classic;html=1;entryX=0;entryY=0.5;entryDx=0;entryDy=0;rounded=0;" parent="4fSJCAxQdGxjCxuYD4hq-1" target="iqhRs4H_UmKiOqqBwbQ3-24" edge="1">
          <mxGeometry width="50" height="50" relative="1" as="geometry">
            <mxPoint x="130" y="682.5" as="sourcePoint" />
            <mxPoint x="350" y="622.5" as="targetPoint" />
          </mxGeometry>
        </mxCell>
        <mxCell id="FnJeIRUBL_hW_ZcqXd8--0" value="Disposition" style="text;html=1;strokeColor=none;fillColor=none;align=left;verticalAlign=middle;whiteSpace=wrap;rounded=0;fontSize=18;" parent="4fSJCAxQdGxjCxuYD4hq-1" vertex="1">
          <mxGeometry x="60" y="30" width="200" height="20" as="geometry" />
        </mxCell>
      </root>
    </mxGraphModel>
  </diagram>
  <diagram id="3TzKj5rmK9ZGC2x-CYO7" name="Page-2">
    <mxGraphModel dx="1179" dy="2334" grid="1" gridSize="10" guides="1" tooltips="1" connect="1" arrows="1" fold="1" page="1" pageScale="1" pageWidth="1100" pageHeight="850" math="0" shadow="0">
      <root>
        <mxCell id="NLD5sfoXQgCFImdVpocD-0" />
        <mxCell id="NLD5sfoXQgCFImdVpocD-1" parent="NLD5sfoXQgCFImdVpocD-0" />
        <mxCell id="NLD5sfoXQgCFImdVpocD-3" value="" style="rounded=0;whiteSpace=wrap;html=1;" vertex="1" parent="NLD5sfoXQgCFImdVpocD-1">
          <mxGeometry x="19" y="-1610" width="1069" height="750" as="geometry" />
        </mxCell>
        <mxCell id="NLD5sfoXQgCFImdVpocD-5" value="" style="rounded=0;whiteSpace=wrap;html=1;" vertex="1" parent="NLD5sfoXQgCFImdVpocD-1">
          <mxGeometry x="19" y="-750" width="1069" height="750" as="geometry" />
        </mxCell>
        <mxCell id="NLD5sfoXQgCFImdVpocD-6" value="" style="rounded=0;whiteSpace=wrap;html=1;fillColor=#F8F9FA;" vertex="1" parent="NLD5sfoXQgCFImdVpocD-1">
          <mxGeometry x="19" y="-749" width="1068" height="79" as="geometry" />
        </mxCell>
        <mxCell id="NLD5sfoXQgCFImdVpocD-89" value="" style="rounded=0;whiteSpace=wrap;html=1;fillColor=#3333FF;" vertex="1" parent="NLD5sfoXQgCFImdVpocD-1">
          <mxGeometry x="19" y="-810" width="1069" height="60" as="geometry" />
        </mxCell>
        <mxCell id="NLD5sfoXQgCFImdVpocD-90" value="&lt;font style=&quot;font-size: 14px&quot;&gt;FEEDBACK&lt;/font&gt;" style="rounded=1;whiteSpace=wrap;html=1;fillColor=#FF8000;strokeColor=#FF8000;fontColor=#FFFFFF;" vertex="1" parent="NLD5sfoXQgCFImdVpocD-1">
          <mxGeometry x="956" y="-800" width="120" height="40" as="geometry" />
        </mxCell>
        <mxCell id="NLD5sfoXQgCFImdVpocD-91" value="" style="shape=image;html=1;verticalAlign=top;verticalLabelPosition=bottom;labelBackgroundColor=#ffffff;imageAspect=0;aspect=fixed;image=https://cdn3.iconfinder.com/data/icons/social-media-2125/78/bell-128.png;strokeColor=#FF8000;fillColor=#FF8000;fontColor=#FFFFFF;" vertex="1" parent="NLD5sfoXQgCFImdVpocD-1">
          <mxGeometry x="894" y="-800" width="37" height="37" as="geometry" />
        </mxCell>
        <mxCell id="NLD5sfoXQgCFImdVpocD-92" value="" style="whiteSpace=wrap;html=1;shape=mxgraph.basic.octagon2;align=center;verticalAlign=middle;dx=12;shadow=0;sketch=0;fontSize=20;fontColor=#808080;fillColor=#FF8000;strokeColor=#FF8000;" vertex="1" parent="NLD5sfoXQgCFImdVpocD-1">
          <mxGeometry x="29" y="-803.5" width="56" height="42" as="geometry" />
        </mxCell>
        <mxCell id="NLD5sfoXQgCFImdVpocD-93" value="Eva" style="text;html=1;strokeColor=none;fillColor=none;align=center;verticalAlign=middle;whiteSpace=wrap;rounded=0;shadow=0;sketch=0;fontSize=20;fontColor=#FFFFFF;fontStyle=1" vertex="1" parent="NLD5sfoXQgCFImdVpocD-1">
          <mxGeometry x="95" y="-790" width="40" height="20" as="geometry" />
        </mxCell>
        <mxCell id="NLD5sfoXQgCFImdVpocD-94" value="" style="html=1;verticalLabelPosition=bottom;align=center;labelBackgroundColor=#ffffff;verticalAlign=top;strokeWidth=2;shadow=0;dashed=0;shape=mxgraph.ios7.icons.user;sketch=0;fontSize=20;fontColor=#FFFFFF;fillColor=#FFFFFF;" vertex="1" parent="NLD5sfoXQgCFImdVpocD-1">
          <mxGeometry x="742" y="-795" width="30" height="30" as="geometry" />
        </mxCell>
        <mxCell id="NLD5sfoXQgCFImdVpocD-95" value="John Doe" style="text;html=1;strokeColor=none;fillColor=none;align=center;verticalAlign=middle;whiteSpace=wrap;rounded=0;shadow=0;sketch=0;fontSize=19;fontColor=#FFFFFF;" vertex="1" parent="NLD5sfoXQgCFImdVpocD-1">
          <mxGeometry x="785.5" y="-790" width="94" height="20" as="geometry" />
        </mxCell>
        <mxCell id="NLD5sfoXQgCFImdVpocD-96" value="&amp;lt;Classification Here&amp;gt;" style="rounded=0;whiteSpace=wrap;html=1;shadow=0;sketch=0;fontSize=12;align=center;fillColor=#FFFF33;" vertex="1" parent="NLD5sfoXQgCFImdVpocD-1">
          <mxGeometry x="19" y="-830" width="1069" height="20" as="geometry" />
        </mxCell>
        <mxCell id="NLD5sfoXQgCFImdVpocD-97" value="" style="line;strokeWidth=1;fillColor=none;align=left;verticalAlign=middle;spacingTop=-1;spacingLeft=3;spacingRight=3;rotatable=0;labelPosition=right;points=[];portConstraint=eastwest;sketch=0;direction=south;" vertex="1" parent="NLD5sfoXQgCFImdVpocD-1">
          <mxGeometry x="42" y="-671" width="8" height="671" as="geometry" />
        </mxCell>
        <mxCell id="NLD5sfoXQgCFImdVpocD-98" value="" style="group;labelBackgroundColor=#ffffff;" connectable="0" vertex="1" parent="NLD5sfoXQgCFImdVpocD-1">
          <mxGeometry x="312" y="-739" width="555" height="60" as="geometry" />
        </mxCell>
        <mxCell id="NLD5sfoXQgCFImdVpocD-99" value="" style="html=1;shadow=0;dashed=0;fillColor=#F8F9FA;strokeColor=none;fontSize=16;fontColor=#181819;align=left;spacing=15;" vertex="1" parent="NLD5sfoXQgCFImdVpocD-98">
          <mxGeometry width="555" height="60" as="geometry" />
        </mxCell>
        <mxCell id="NLD5sfoXQgCFImdVpocD-100" value="Search" style="html=1;shadow=0;dashed=0;shape=mxgraph.bootstrap.rrect;rSize=5;fontSize=14;fontColor=#6C767D;strokeColor=#CED4DA;fillColor=#ffffff;align=left;spacing=10;" vertex="1" parent="NLD5sfoXQgCFImdVpocD-99">
          <mxGeometry width="470" height="40" relative="1" as="geometry">
            <mxPoint x="10" y="10" as="offset" />
          </mxGeometry>
        </mxCell>
        <mxCell id="NLD5sfoXQgCFImdVpocD-101" value="" style="ellipse;whiteSpace=wrap;html=1;fillColor=#FFFFFF;" vertex="1" parent="NLD5sfoXQgCFImdVpocD-99">
          <mxGeometry x="425.67961165048536" y="22" width="10.776699029126211" height="10" as="geometry" />
        </mxCell>
        <mxCell id="NLD5sfoXQgCFImdVpocD-102" value="" style="endArrow=none;html=1;" edge="1" parent="NLD5sfoXQgCFImdVpocD-99">
          <mxGeometry width="50" height="50" relative="1" as="geometry">
            <mxPoint x="436.4563106796116" y="32" as="sourcePoint" />
            <mxPoint x="436.4563106796116" y="32" as="targetPoint" />
            <Array as="points">
              <mxPoint x="447.23300970873777" y="40" />
            </Array>
          </mxGeometry>
        </mxCell>
        <mxCell id="NLD5sfoXQgCFImdVpocD-103" value="" style="triangle;whiteSpace=wrap;html=1;rotation=90;fillColor=#000000;" vertex="1" parent="NLD5sfoXQgCFImdVpocD-99">
          <mxGeometry x="458.00970873786395" y="25" width="10.776699029126211" height="10" as="geometry" />
        </mxCell>
        <mxCell id="NLD5sfoXQgCFImdVpocD-104" value="" style="shape=ellipse;dashed=0;strokeColor=none;shadow=1;fontSize=13;align=center;verticalAlign=top;labelPosition=center;verticalLabelPosition=bottom;html=1;aspect=fixed;" vertex="1" parent="NLD5sfoXQgCFImdVpocD-98">
          <mxGeometry x="492.5" y="10" width="40" height="40" as="geometry" />
        </mxCell>
        <mxCell id="NLD5sfoXQgCFImdVpocD-105" value="" style="dashed=0;html=1;shape=mxgraph.gmdl.plus;strokeColor=#737373;strokeWidth=2;shadow=0;" vertex="1" parent="NLD5sfoXQgCFImdVpocD-104">
          <mxGeometry x="12" y="12" width="16" height="16" as="geometry" />
        </mxCell>
        <mxCell id="NLD5sfoXQgCFImdVpocD-106" value="" style="line;strokeWidth=1;fillColor=none;align=left;verticalAlign=middle;spacingTop=-1;spacingLeft=3;spacingRight=3;rotatable=0;labelPosition=right;points=[];portConstraint=eastwest;sketch=0;direction=west;" vertex="1" parent="NLD5sfoXQgCFImdVpocD-1">
          <mxGeometry x="21" y="-676" width="1067" height="8" as="geometry" />
        </mxCell>
        <mxCell id="NLD5sfoXQgCFImdVpocD-107" value="" style="line;strokeWidth=1;fillColor=none;align=left;verticalAlign=middle;spacingTop=-1;spacingLeft=3;spacingRight=3;rotatable=0;labelPosition=right;points=[];portConstraint=eastwest;sketch=0;direction=south;" vertex="1" parent="NLD5sfoXQgCFImdVpocD-1">
          <mxGeometry x="337" y="-670" width="8" height="670" as="geometry" />
        </mxCell>
        <mxCell id="NLD5sfoXQgCFImdVpocD-108" value="" style="rounded=0;whiteSpace=wrap;html=1;fontSize=20;align=left;fillColor=#3333FF;" vertex="1" parent="NLD5sfoXQgCFImdVpocD-1">
          <mxGeometry x="46" y="-670" width="276" height="40" as="geometry" />
        </mxCell>
        <mxCell id="NLD5sfoXQgCFImdVpocD-109" value="" style="html=1;shadow=0;dashed=0;shape=mxgraph.bootstrap.rrect;rSize=5;strokeColor=#DFDFDF;html=1;whiteSpace=wrap;fillColor=#FFFFFF;fontColor=#495057;" vertex="1" parent="NLD5sfoXQgCFImdVpocD-1">
          <mxGeometry x="49" y="-628" width="260" height="300" as="geometry" />
        </mxCell>
        <mxCell id="NLD5sfoXQgCFImdVpocD-110" value="&lt;font style=&quot;font-size: 16px&quot;&gt;System X&lt;/font&gt;&lt;br&gt;Records Eligible:&amp;nbsp; 275&lt;br&gt;RCS Values Applied:&amp;nbsp; RCS 12-34 10b,&lt;br&gt;RCS 56-78 1a, FRCS 30-1a" style="html=1;shadow=0;dashed=0;shape=mxgraph.bootstrap.topButton;rSize=5;perimeter=none;whiteSpace=wrap;resizeWidth=1;align=left;spacing=10;verticalAlign=top;fillColor=#0085FC;strokeColor=#0085FC;fontColor=#ffffff;" vertex="1" parent="NLD5sfoXQgCFImdVpocD-109">
          <mxGeometry width="260" height="100" relative="1" as="geometry" />
        </mxCell>
        <mxCell id="NLD5sfoXQgCFImdVpocD-111" value="&lt;span style=&quot;font-size: 16px&quot;&gt;IMS Repo&lt;/span&gt;&lt;br&gt;Records Eligible:&amp;nbsp; 125&lt;br&gt;RCS Values Applied:&amp;nbsp; FRCS 10-5b&lt;br&gt;" style="strokeColor=inherit;fillColor=inherit;gradientColor=inherit;fontColor=inherit;html=1;shadow=0;dashed=0;perimeter=none;whiteSpace=wrap;resizeWidth=1;align=left;spacing=10;" vertex="1" parent="NLD5sfoXQgCFImdVpocD-109">
          <mxGeometry width="260" height="100" relative="1" as="geometry">
            <mxPoint y="100" as="offset" />
          </mxGeometry>
        </mxCell>
        <mxCell id="NLD5sfoXQgCFImdVpocD-112" value="&lt;font style=&quot;font-size: 16px&quot;&gt;IDL&lt;/font&gt;&lt;br&gt;Records Eligible:&amp;nbsp; 100&lt;br&gt;RCS Values Applied:&amp;nbsp; GRS 3.4 010&lt;br&gt;" style="strokeColor=inherit;fillColor=inherit;gradientColor=inherit;fontColor=inherit;html=1;shadow=0;dashed=0;shape=mxgraph.bootstrap.bottomButton;rSize=5;perimeter=none;whiteSpace=wrap;resizeWidth=1;resizeHeight=0;align=left;spacing=10;" vertex="1" parent="NLD5sfoXQgCFImdVpocD-109">
          <mxGeometry y="1" width="260" height="100" relative="1" as="geometry">
            <mxPoint y="-100" as="offset" />
          </mxGeometry>
        </mxCell>
        <mxCell id="NLD5sfoXQgCFImdVpocD-113" value="Disposition" style="text;html=1;strokeColor=none;fillColor=none;align=left;verticalAlign=middle;whiteSpace=wrap;rounded=0;labelPosition=center;verticalLabelPosition=middle;fontSize=16;fontStyle=1;fontColor=#FFFFFF;" vertex="1" parent="NLD5sfoXQgCFImdVpocD-1">
          <mxGeometry x="53" y="-660" width="258" height="20" as="geometry" />
        </mxCell>
        <mxCell id="NLD5sfoXQgCFImdVpocD-114" value="" style="html=1;verticalLabelPosition=bottom;labelBackgroundColor=#ffffff;verticalAlign=top;shadow=0;dashed=0;strokeWidth=2;shape=mxgraph.ios7.misc.scroll_(vertical);fillColor=#a0a0a0;sketch=0;" vertex="1" parent="NLD5sfoXQgCFImdVpocD-1">
          <mxGeometry x="314" y="-621" width="6" height="80" as="geometry" />
        </mxCell>
        <mxCell id="NLD5sfoXQgCFImdVpocD-115" value="" style="group" connectable="0" vertex="1" parent="NLD5sfoXQgCFImdVpocD-1">
          <mxGeometry x="352" y="-665" width="530" height="500" as="geometry" />
        </mxCell>
        <mxCell id="NLD5sfoXQgCFImdVpocD-133" value="" style="shape=ellipse;dashed=0;strokeColor=none;shadow=1;fontSize=13;align=center;verticalAlign=top;labelPosition=center;verticalLabelPosition=bottom;html=1;aspect=fixed;fillColor=#F8F9FA;" vertex="1" parent="NLD5sfoXQgCFImdVpocD-115">
          <mxGeometry x="408.97637795275597" y="30" width="23.95275590551181" height="23.95275590551181" as="geometry" />
        </mxCell>
        <mxCell id="NLD5sfoXQgCFImdVpocD-134" value="" style="dashed=0;html=1;shape=mxgraph.gmdl.edit;strokeColor=none;fillColor=#737373;shadow=0;" vertex="1" parent="NLD5sfoXQgCFImdVpocD-133">
          <mxGeometry x="7.699100112485939" y="7.699100112485939" width="8.554555680539933" height="8.554555680539933" as="geometry" />
        </mxCell>
        <mxCell id="NLD5sfoXQgCFImdVpocD-135" value="" style="shape=ellipse;dashed=0;strokeColor=none;shadow=1;fontSize=13;align=center;verticalAlign=top;labelPosition=center;verticalLabelPosition=bottom;html=1;aspect=fixed;fillColor=#F8F9FA;" vertex="1" parent="NLD5sfoXQgCFImdVpocD-115">
          <mxGeometry x="498.2834645669294" y="30" width="23.95275590551181" height="23.95275590551181" as="geometry" />
        </mxCell>
        <mxCell id="NLD5sfoXQgCFImdVpocD-136" value="" style="dashed=0;html=1;shape=mxgraph.gmdl.x;strokeColor=#737373;strokeWidth=2;shadow=0;" vertex="1" parent="NLD5sfoXQgCFImdVpocD-135">
          <mxGeometry x="8.554555680539933" y="8.554555680539933" width="6.843644544431946" height="6.843644544431946" as="geometry" />
        </mxCell>
        <mxCell id="NLD5sfoXQgCFImdVpocD-137" value="" style="shape=ellipse;dashed=0;strokeColor=none;shadow=1;fontSize=13;align=center;verticalAlign=top;labelPosition=center;verticalLabelPosition=bottom;html=1;aspect=fixed;rounded=1;sketch=0;fillColor=#F8F9FA;" vertex="1" parent="NLD5sfoXQgCFImdVpocD-115">
          <mxGeometry x="439.85826771653564" y="30" width="23.95275590551181" height="23.95275590551181" as="geometry" />
        </mxCell>
        <mxCell id="NLD5sfoXQgCFImdVpocD-138" value="" style="dashed=0;html=1;shape=mxgraph.gmdl.star;strokeColor=none;fillColor=#737373;shadow=0;" vertex="1" parent="NLD5sfoXQgCFImdVpocD-137">
          <mxGeometry x="7.699100112485939" y="7.699100112485939" width="8.554555680539933" height="8.554555680539933" as="geometry" />
        </mxCell>
        <mxCell id="NLD5sfoXQgCFImdVpocD-139" value="" style="shape=ellipse;dashed=0;strokeColor=none;shadow=1;fontSize=13;align=center;verticalAlign=top;labelPosition=center;verticalLabelPosition=bottom;html=1;aspect=fixed;rounded=1;sketch=0;fillColor=#F8F9FA;" vertex="1" parent="NLD5sfoXQgCFImdVpocD-115">
          <mxGeometry x="469.0708661417325" y="30" width="23.95275590551181" height="23.95275590551181" as="geometry" />
        </mxCell>
        <mxCell id="NLD5sfoXQgCFImdVpocD-140" value="" style="dashed=0;html=1;shape=mxgraph.gmdl.cloud;strokeColor=none;fillColor=#737373;shadow=0;" vertex="1" parent="NLD5sfoXQgCFImdVpocD-139">
          <mxGeometry x="6.843644544431946" y="8.554555680539933" width="10.265466816647919" height="6.843644544431946" as="geometry" />
        </mxCell>
        <mxCell id="NLD5sfoXQgCFImdVpocD-141" value="Fav:" style="text;html=1;strokeColor=none;fillColor=none;align=center;verticalAlign=middle;whiteSpace=wrap;rounded=0;shadow=0;sketch=0;fontSize=10;fontColor=#FFFFFF;" vertex="1" parent="NLD5sfoXQgCFImdVpocD-1">
          <mxGeometry x="252" y="-660" width="40" height="20" as="geometry" />
        </mxCell>
        <mxCell id="NLD5sfoXQgCFImdVpocD-142" value="" style="shape=image;html=1;verticalAlign=top;verticalLabelPosition=bottom;labelBackgroundColor=#ffffff;imageAspect=0;aspect=fixed;image=https://cdn2.iconfinder.com/data/icons/font-awesome/1792/sort-alpha-asc-128.png;rounded=1;shadow=1;sketch=0;strokeColor=#000000;fillColor=#4285F4;fontSize=11;align=left;fontColor=#97D077;" vertex="1" parent="NLD5sfoXQgCFImdVpocD-1">
          <mxGeometry x="235" y="-657" width="15" height="15" as="geometry" />
        </mxCell>
        <mxCell id="NLD5sfoXQgCFImdVpocD-143" value="" style="fillColor=#36B37E;strokeColor=none;rounded=1;arcSize=50;shadow=1;sketch=0;fontSize=11;fontColor=#FFFFFF;align=left;" vertex="1" parent="NLD5sfoXQgCFImdVpocD-1">
          <mxGeometry x="286" y="-657" width="30" height="16" as="geometry" />
        </mxCell>
        <mxCell id="NLD5sfoXQgCFImdVpocD-144" value="" style="perimeter=none;dashed=0;shape=mxgraph.gmdl.triangle;strokeColor=none;fillColor=#666666;direction=south;aspect=fixed;flipV=0;flipH=1;" vertex="1" parent="NLD5sfoXQgCFImdVpocD-1">
          <mxGeometry x="34" y="-320" width="8" height="16" as="geometry">
            <mxPoint x="-27" as="offset" />
          </mxGeometry>
        </mxCell>
        <mxCell id="NLD5sfoXQgCFImdVpocD-145" value="" style="rounded=0;whiteSpace=wrap;html=1;fillColor=#3333FF;" vertex="1" parent="NLD5sfoXQgCFImdVpocD-1">
          <mxGeometry x="19" y="-1670" width="1069" height="60" as="geometry" />
        </mxCell>
        <mxCell id="NLD5sfoXQgCFImdVpocD-146" value="&lt;font style=&quot;font-size: 14px&quot;&gt;FEEDBACK&lt;/font&gt;" style="rounded=1;whiteSpace=wrap;html=1;fillColor=#FF8000;strokeColor=#FF8000;fontColor=#FFFFFF;" vertex="1" parent="NLD5sfoXQgCFImdVpocD-1">
          <mxGeometry x="956" y="-1660" width="120" height="40" as="geometry" />
        </mxCell>
        <mxCell id="NLD5sfoXQgCFImdVpocD-147" value="" style="shape=image;html=1;verticalAlign=top;verticalLabelPosition=bottom;labelBackgroundColor=#ffffff;imageAspect=0;aspect=fixed;image=https://cdn3.iconfinder.com/data/icons/social-media-2125/78/bell-128.png;strokeColor=#FF8000;fillColor=#FF8000;fontColor=#FFFFFF;" vertex="1" parent="NLD5sfoXQgCFImdVpocD-1">
          <mxGeometry x="894" y="-1660" width="37" height="37" as="geometry" />
        </mxCell>
        <mxCell id="NLD5sfoXQgCFImdVpocD-148" value="" style="whiteSpace=wrap;html=1;shape=mxgraph.basic.octagon2;align=center;verticalAlign=middle;dx=12;shadow=0;sketch=0;fontSize=20;fontColor=#808080;fillColor=#FF8000;strokeColor=#FF8000;" vertex="1" parent="NLD5sfoXQgCFImdVpocD-1">
          <mxGeometry x="29" y="-1663.5" width="56" height="42" as="geometry" />
        </mxCell>
        <mxCell id="NLD5sfoXQgCFImdVpocD-149" value="Eva" style="text;html=1;strokeColor=none;fillColor=none;align=center;verticalAlign=middle;whiteSpace=wrap;rounded=0;shadow=0;sketch=0;fontSize=20;fontColor=#FFFFFF;fontStyle=1" vertex="1" parent="NLD5sfoXQgCFImdVpocD-1">
          <mxGeometry x="95" y="-1650" width="40" height="20" as="geometry" />
        </mxCell>
        <mxCell id="NLD5sfoXQgCFImdVpocD-150" value="" style="html=1;verticalLabelPosition=bottom;align=center;labelBackgroundColor=#ffffff;verticalAlign=top;strokeWidth=2;shadow=0;dashed=0;shape=mxgraph.ios7.icons.user;sketch=0;fontSize=20;fontColor=#FFFFFF;fillColor=#FFFFFF;" vertex="1" parent="NLD5sfoXQgCFImdVpocD-1">
          <mxGeometry x="742" y="-1655" width="30" height="30" as="geometry" />
        </mxCell>
        <mxCell id="NLD5sfoXQgCFImdVpocD-151" value="John Doe" style="text;html=1;strokeColor=none;fillColor=none;align=center;verticalAlign=middle;whiteSpace=wrap;rounded=0;shadow=0;sketch=0;fontSize=19;fontColor=#FFFFFF;" vertex="1" parent="NLD5sfoXQgCFImdVpocD-1">
          <mxGeometry x="785.5" y="-1650" width="94" height="20" as="geometry" />
        </mxCell>
        <mxCell id="NLD5sfoXQgCFImdVpocD-152" value="&amp;lt;Classification Here&amp;gt;" style="rounded=0;whiteSpace=wrap;html=1;shadow=0;sketch=0;fontSize=12;align=center;fillColor=#FFFF33;" vertex="1" parent="NLD5sfoXQgCFImdVpocD-1">
          <mxGeometry x="19" y="-1690" width="1069" height="20" as="geometry" />
        </mxCell>
        <mxCell id="NLD5sfoXQgCFImdVpocD-164" value="Assign or Reassign&amp;nbsp;" style="html=1;shadow=0;dashed=0;shape=mxgraph.bootstrap.rrect;rSize=5;html=1;strokeColor=#C8C8C8;fillColor=#ffffff;whiteSpace=wrap;verticalAlign=top;align=left;fontSize=18;spacing=15;spacingTop=-5;" vertex="1" parent="NLD5sfoXQgCFImdVpocD-1">
          <mxGeometry x="1170" y="256" width="500" height="560" as="geometry" />
        </mxCell>
        <mxCell id="NLD5sfoXQgCFImdVpocD-165" value="" style="shape=line;strokeColor=#dddddd;resizeWidth=1;" vertex="1" parent="NLD5sfoXQgCFImdVpocD-164">
          <mxGeometry width="490.00000000000006" height="10" relative="1" as="geometry">
            <mxPoint y="50" as="offset" />
          </mxGeometry>
        </mxCell>
        <mxCell id="NLD5sfoXQgCFImdVpocD-166" value="" style="html=1;shadow=0;dashed=0;shape=mxgraph.bootstrap.x;strokeColor=#868686;strokeWidth=2;" vertex="1" parent="NLD5sfoXQgCFImdVpocD-164">
          <mxGeometry x="1" width="8" height="8" relative="1" as="geometry">
            <mxPoint x="-24" y="20" as="offset" />
          </mxGeometry>
        </mxCell>
        <mxCell id="NLD5sfoXQgCFImdVpocD-167" value="" style="shape=line;strokeColor=#dddddd;resizeWidth=1;" vertex="1" parent="NLD5sfoXQgCFImdVpocD-164">
          <mxGeometry width="490.00000000000006" height="10" relative="1" as="geometry">
            <mxPoint y="480" as="offset" />
          </mxGeometry>
        </mxCell>
        <mxCell id="NLD5sfoXQgCFImdVpocD-168" value="Proceed" style="html=1;shadow=0;dashed=0;shape=mxgraph.bootstrap.rrect;rSize=5;fillColor=#0085FC;strokeColor=none;fontColor=#FFFFFF;fontSize=14;" vertex="1" parent="NLD5sfoXQgCFImdVpocD-164">
          <mxGeometry x="1" y="1" width="110" height="40" relative="1" as="geometry">
            <mxPoint x="-130" y="-60" as="offset" />
          </mxGeometry>
        </mxCell>
        <mxCell id="NLD5sfoXQgCFImdVpocD-169" value="Cancel" style="html=1;shadow=0;dashed=0;shape=mxgraph.bootstrap.rrect;rSize=5;fillColor=#6C757D;strokeColor=none;fontColor=#FFFFFF;fontSize=14;" vertex="1" parent="NLD5sfoXQgCFImdVpocD-164">
          <mxGeometry x="1" y="1" width="70" height="40" relative="1" as="geometry">
            <mxPoint x="-220" y="-60" as="offset" />
          </mxGeometry>
        </mxCell>
        <mxCell id="NLD5sfoXQgCFImdVpocD-171" value="System Selection" style="shape=rect;strokeColor=none;fillColor=none;align=left;fontStyle=1;" vertex="1" parent="NLD5sfoXQgCFImdVpocD-164">
          <mxGeometry x="46" y="100" width="200" height="24" as="geometry" />
        </mxCell>
        <mxCell id="NLD5sfoXQgCFImdVpocD-178" value="Change the IMO responsible to&amp;nbsp;" style="text;html=1;strokeColor=none;fillColor=none;align=left;verticalAlign=top;whiteSpace=wrap;rounded=0;shadow=1;dashed=1;labelBackgroundColor=none;sketch=0;fontSize=9;opacity=30;" vertex="1" parent="NLD5sfoXQgCFImdVpocD-164">
          <mxGeometry x="10" y="60" width="470" height="40" as="geometry" />
        </mxCell>
        <mxCell id="NLD5sfoXQgCFImdVpocD-179" value="Next" style="shape=rect;strokeColor=none;fillColor=#4285f4;fontColor=#ffffff;rounded=1;" vertex="1" parent="NLD5sfoXQgCFImdVpocD-164">
          <mxGeometry x="46" y="185" width="102" height="36" as="geometry" />
        </mxCell>
        <mxCell id="NLD5sfoXQgCFImdVpocD-180" value="Cancel" style="html=1;shadow=0;dashed=0;shape=mxgraph.bootstrap.rrect;rSize=5;fillColor=#6C757D;strokeColor=none;fontColor=#FFFFFF;fontSize=14;" vertex="1" parent="NLD5sfoXQgCFImdVpocD-164">
          <mxGeometry x="156.00402733964256" y="185" width="70" height="36" as="geometry" />
        </mxCell>
        <mxCell id="NLD5sfoXQgCFImdVpocD-181" value="Select System" style="rounded=1;fillColor=#F1F2F4;strokeColor=none;html=1;fontColor=#596780;align=left;fontSize=12;spacingLeft=10;shadow=0;sketch=0;" vertex="1" parent="NLD5sfoXQgCFImdVpocD-164">
          <mxGeometry x="50" y="130" width="430" height="30" as="geometry" />
        </mxCell>
        <mxCell id="NLD5sfoXQgCFImdVpocD-182" value="" style="shape=triangle;direction=south;fillColor=#596780;strokeColor=none;html=1" vertex="1" parent="NLD5sfoXQgCFImdVpocD-181">
          <mxGeometry x="1" y="0.5" width="12" height="6" relative="1" as="geometry">
            <mxPoint x="-20" y="-3" as="offset" />
          </mxGeometry>
        </mxCell>
        <mxCell id="NLD5sfoXQgCFImdVpocD-269" value="Add System to Hold" style="html=1;shadow=0;dashed=0;shape=mxgraph.bootstrap.rrect;rSize=5;html=1;strokeColor=#C8C8C8;fillColor=#ffffff;whiteSpace=wrap;verticalAlign=top;align=left;fontSize=18;spacing=15;spacingTop=-5;" vertex="1" parent="NLD5sfoXQgCFImdVpocD-1">
          <mxGeometry x="1230" y="1147" width="500" height="560" as="geometry" />
        </mxCell>
        <mxCell id="NLD5sfoXQgCFImdVpocD-270" value="" style="shape=line;strokeColor=#dddddd;resizeWidth=1;" vertex="1" parent="NLD5sfoXQgCFImdVpocD-269">
          <mxGeometry width="490.00000000000006" height="10" relative="1" as="geometry">
            <mxPoint y="50" as="offset" />
          </mxGeometry>
        </mxCell>
        <mxCell id="NLD5sfoXQgCFImdVpocD-271" value="" style="html=1;shadow=0;dashed=0;shape=mxgraph.bootstrap.x;strokeColor=#868686;strokeWidth=2;" vertex="1" parent="NLD5sfoXQgCFImdVpocD-269">
          <mxGeometry x="1" width="8" height="8" relative="1" as="geometry">
            <mxPoint x="-24" y="20" as="offset" />
          </mxGeometry>
        </mxCell>
        <mxCell id="NLD5sfoXQgCFImdVpocD-272" value="" style="shape=line;strokeColor=#dddddd;resizeWidth=1;" vertex="1" parent="NLD5sfoXQgCFImdVpocD-269">
          <mxGeometry width="490.00000000000006" height="10" relative="1" as="geometry">
            <mxPoint y="480" as="offset" />
          </mxGeometry>
        </mxCell>
        <mxCell id="NLD5sfoXQgCFImdVpocD-273" value="Proceed" style="html=1;shadow=0;dashed=0;shape=mxgraph.bootstrap.rrect;rSize=5;fillColor=#0085FC;strokeColor=none;fontColor=#FFFFFF;fontSize=14;" vertex="1" parent="NLD5sfoXQgCFImdVpocD-269">
          <mxGeometry x="1" y="1" width="110" height="40" relative="1" as="geometry">
            <mxPoint x="-130" y="-60" as="offset" />
          </mxGeometry>
        </mxCell>
        <mxCell id="NLD5sfoXQgCFImdVpocD-274" value="Cancel" style="html=1;shadow=0;dashed=0;shape=mxgraph.bootstrap.rrect;rSize=5;fillColor=#6C757D;strokeColor=none;fontColor=#FFFFFF;fontSize=14;" vertex="1" parent="NLD5sfoXQgCFImdVpocD-269">
          <mxGeometry x="1" y="1" width="70" height="40" relative="1" as="geometry">
            <mxPoint x="-220" y="-60" as="offset" />
          </mxGeometry>
        </mxCell>
        <mxCell id="NLD5sfoXQgCFImdVpocD-275" value="1" style="shape=ellipse;strokeColor=none;fontColor=#ffffff;fillColor=#9E9E9E;" vertex="1" parent="NLD5sfoXQgCFImdVpocD-269">
          <mxGeometry x="10" y="100" width="24" height="24" as="geometry" />
        </mxCell>
        <mxCell id="NLD5sfoXQgCFImdVpocD-276" value="System Selection" style="shape=rect;strokeColor=none;fillColor=none;align=left;fontStyle=0;fontColor=#9E9E9E;" vertex="1" parent="NLD5sfoXQgCFImdVpocD-269">
          <mxGeometry x="46" y="100" width="200" height="24" as="geometry" />
        </mxCell>
        <mxCell id="NLD5sfoXQgCFImdVpocD-277" value="" style="shape=line;direction=north;strokeColor=#b3b3b3;" vertex="1" parent="NLD5sfoXQgCFImdVpocD-269">
          <mxGeometry x="17" y="130" width="10" height="30" as="geometry" />
        </mxCell>
        <mxCell id="NLD5sfoXQgCFImdVpocD-278" value="2" style="shape=ellipse;strokeColor=none;fontColor=#ffffff;fillColor=#0085FC;" vertex="1" parent="NLD5sfoXQgCFImdVpocD-269">
          <mxGeometry x="10" y="170" width="24" height="24" as="geometry" />
        </mxCell>
        <mxCell id="NLD5sfoXQgCFImdVpocD-279" value="Queries Against Data" style="shape=rect;strokeColor=none;fillColor=none;align=left;fontStyle=1" vertex="1" parent="NLD5sfoXQgCFImdVpocD-269">
          <mxGeometry x="46" y="170" width="200" height="24" as="geometry" />
        </mxCell>
        <mxCell id="NLD5sfoXQgCFImdVpocD-280" value="3" style="shape=ellipse;strokeColor=none;fillColor=#9e9e9e;fontColor=#ffffff;" vertex="1" parent="NLD5sfoXQgCFImdVpocD-269">
          <mxGeometry x="10" y="442" width="24" height="24" as="geometry" />
        </mxCell>
        <mxCell id="NLD5sfoXQgCFImdVpocD-281" value="Certification and Authorization" style="shape=rect;strokeColor=none;fillColor=none;align=left;fontColor=#aaaaaa;" vertex="1" parent="NLD5sfoXQgCFImdVpocD-269">
          <mxGeometry x="46" y="442" width="200" height="24" as="geometry" />
        </mxCell>
        <mxCell id="NLD5sfoXQgCFImdVpocD-282" value="" style="shape=line;direction=north;strokeColor=#b3b3b3;" vertex="1" parent="NLD5sfoXQgCFImdVpocD-269">
          <mxGeometry x="17" y="200" width="10" height="235" as="geometry" />
        </mxCell>
        <mxCell id="NLD5sfoXQgCFImdVpocD-283" value="Define the system that should have records held and specify the query or queries used to define those records." style="text;html=1;strokeColor=none;fillColor=none;align=left;verticalAlign=top;whiteSpace=wrap;rounded=0;shadow=1;dashed=1;labelBackgroundColor=none;sketch=0;fontSize=9;opacity=30;" vertex="1" parent="NLD5sfoXQgCFImdVpocD-269">
          <mxGeometry x="10" y="60" width="470" height="40" as="geometry" />
        </mxCell>
        <mxCell id="NLD5sfoXQgCFImdVpocD-284" value="&lt;font style=&quot;font-size: 12px&quot;&gt;Query&lt;/font&gt;" style="html=1;shadow=0;dashed=0;shape=mxgraph.bootstrap.rrect;rSize=5;strokeColor=#CED4DA;html=1;whiteSpace=wrap;fillColor=#FFFFFF;fontColor=#7D868C;align=left;spacing=2;spacingLeft=10;fontSize=14;verticalAlign=top;" vertex="1" parent="NLD5sfoXQgCFImdVpocD-269">
          <mxGeometry x="130" y="200" width="320" height="50" as="geometry" />
        </mxCell>
        <mxCell id="NLD5sfoXQgCFImdVpocD-285" value="Next" style="shape=rect;strokeColor=none;fillColor=#4285f4;fontColor=#ffffff;rounded=1;" vertex="1" parent="NLD5sfoXQgCFImdVpocD-269">
          <mxGeometry x="46" y="399" width="102" height="36" as="geometry" />
        </mxCell>
        <mxCell id="NLD5sfoXQgCFImdVpocD-286" value="Cancel" style="html=1;shadow=0;dashed=0;shape=mxgraph.bootstrap.rrect;rSize=5;fillColor=#6C757D;strokeColor=none;fontColor=#FFFFFF;fontSize=14;" vertex="1" parent="NLD5sfoXQgCFImdVpocD-269">
          <mxGeometry x="156.00402733964256" y="399" width="70" height="36" as="geometry" />
        </mxCell>
        <mxCell id="NLD5sfoXQgCFImdVpocD-287" value="Enabled" style="shape=ellipse;rounded=1;fillColor=#F0F2F5;strokeColor=#D8DCE3;fontColor=#000000;align=left;verticalAlign=middle;fontStyle=0;fontSize=12;labelPosition=right;verticalLabelPosition=middle;spacingLeft=10;html=1;shadow=0;dashed=0" vertex="1" parent="NLD5sfoXQgCFImdVpocD-269">
          <mxGeometry x="46" y="200" width="12" height="12" as="geometry" />
        </mxCell>
        <mxCell id="NLD5sfoXQgCFImdVpocD-288" value="Disabled" style="shape=ellipse;fillColor=#ffffff;strokeColor=#0057D8;strokeWidth=4;fontColor=#000000;align=left;verticalAlign=middle;fontStyle=0;fontSize=12;labelPosition=right;verticalLabelPosition=middle;spacingLeft=10" vertex="1" parent="NLD5sfoXQgCFImdVpocD-269">
          <mxGeometry x="47" y="226" width="10" height="10" as="geometry" />
        </mxCell>
        <mxCell id="NLD5sfoXQgCFImdVpocD-289" value="&lt;font style=&quot;font-size: 12px&quot;&gt;Query&lt;/font&gt;" style="html=1;shadow=0;dashed=0;shape=mxgraph.bootstrap.rrect;rSize=5;strokeColor=#CED4DA;html=1;whiteSpace=wrap;fillColor=#FFFFFF;fontColor=#7D868C;align=left;spacing=2;spacingLeft=10;fontSize=14;verticalAlign=top;" vertex="1" parent="NLD5sfoXQgCFImdVpocD-269">
          <mxGeometry x="130" y="260" width="320" height="50" as="geometry" />
        </mxCell>
        <mxCell id="NLD5sfoXQgCFImdVpocD-290" value="" style="shape=ellipse;dashed=0;strokeColor=none;shadow=1;fontSize=13;align=center;verticalAlign=top;labelPosition=center;verticalLabelPosition=bottom;html=1;aspect=fixed;" vertex="1" parent="NLD5sfoXQgCFImdVpocD-269">
          <mxGeometry x="460" y="260.05" width="23.95" height="23.95" as="geometry" />
        </mxCell>
        <mxCell id="NLD5sfoXQgCFImdVpocD-291" value="" style="dashed=0;html=1;shape=mxgraph.gmdl.plus;strokeColor=#737373;strokeWidth=2;shadow=0;" vertex="1" parent="NLD5sfoXQgCFImdVpocD-290">
          <mxGeometry x="7.1850000000000005" y="7.1850000000000005" width="9.579999999999998" height="9.579999999999998" as="geometry" />
        </mxCell>
        <mxCell id="NLD5sfoXQgCFImdVpocD-292" value="Enabled" style="shape=ellipse;fillColor=#ffffff;strokeColor=#0057D8;strokeWidth=4;fontColor=#000000;align=left;verticalAlign=middle;fontStyle=0;fontSize=12;labelPosition=right;verticalLabelPosition=middle;spacingLeft=10" vertex="1" parent="NLD5sfoXQgCFImdVpocD-269">
          <mxGeometry x="47" y="262.75" width="10" height="10" as="geometry" />
        </mxCell>
        <mxCell id="NLD5sfoXQgCFImdVpocD-293" value="Disabled" style="shape=ellipse;rounded=1;fillColor=#F0F2F5;strokeColor=#D8DCE3;fontColor=#000000;align=left;verticalAlign=middle;fontStyle=0;fontSize=12;labelPosition=right;verticalLabelPosition=middle;spacingLeft=10;html=1;shadow=0;dashed=0" vertex="1" parent="NLD5sfoXQgCFImdVpocD-269">
          <mxGeometry x="46" y="285.25" width="12" height="12" as="geometry" />
        </mxCell>
        <mxCell id="NLD5sfoXQgCFImdVpocD-379" value="Add System to Hold" style="html=1;shadow=0;dashed=0;shape=mxgraph.bootstrap.rrect;rSize=5;html=1;strokeColor=#C8C8C8;fillColor=#ffffff;whiteSpace=wrap;verticalAlign=top;align=left;fontSize=18;spacing=15;spacingTop=-5;" vertex="1" parent="NLD5sfoXQgCFImdVpocD-1">
          <mxGeometry x="1230" y="1997" width="500" height="560" as="geometry" />
        </mxCell>
        <mxCell id="NLD5sfoXQgCFImdVpocD-380" value="" style="shape=line;strokeColor=#dddddd;resizeWidth=1;" vertex="1" parent="NLD5sfoXQgCFImdVpocD-379">
          <mxGeometry width="490.00000000000006" height="10" relative="1" as="geometry">
            <mxPoint y="50" as="offset" />
          </mxGeometry>
        </mxCell>
        <mxCell id="NLD5sfoXQgCFImdVpocD-381" value="" style="html=1;shadow=0;dashed=0;shape=mxgraph.bootstrap.x;strokeColor=#868686;strokeWidth=2;" vertex="1" parent="NLD5sfoXQgCFImdVpocD-379">
          <mxGeometry x="1" width="8" height="8" relative="1" as="geometry">
            <mxPoint x="-24" y="20" as="offset" />
          </mxGeometry>
        </mxCell>
        <mxCell id="NLD5sfoXQgCFImdVpocD-382" value="" style="shape=line;strokeColor=#dddddd;resizeWidth=1;" vertex="1" parent="NLD5sfoXQgCFImdVpocD-379">
          <mxGeometry width="490.00000000000006" height="10" relative="1" as="geometry">
            <mxPoint y="480" as="offset" />
          </mxGeometry>
        </mxCell>
        <mxCell id="NLD5sfoXQgCFImdVpocD-383" value="Proceed" style="html=1;shadow=0;dashed=0;shape=mxgraph.bootstrap.rrect;rSize=5;fillColor=#0085FC;strokeColor=none;fontColor=#FFFFFF;fontSize=14;" vertex="1" parent="NLD5sfoXQgCFImdVpocD-379">
          <mxGeometry x="1" y="1" width="110" height="40" relative="1" as="geometry">
            <mxPoint x="-130" y="-60" as="offset" />
          </mxGeometry>
        </mxCell>
        <mxCell id="NLD5sfoXQgCFImdVpocD-384" value="Cancel" style="html=1;shadow=0;dashed=0;shape=mxgraph.bootstrap.rrect;rSize=5;fillColor=#6C757D;strokeColor=none;fontColor=#FFFFFF;fontSize=14;" vertex="1" parent="NLD5sfoXQgCFImdVpocD-379">
          <mxGeometry x="1" y="1" width="70" height="40" relative="1" as="geometry">
            <mxPoint x="-220" y="-60" as="offset" />
          </mxGeometry>
        </mxCell>
        <mxCell id="NLD5sfoXQgCFImdVpocD-385" value="1" style="shape=ellipse;strokeColor=none;fontColor=#ffffff;fillColor=#9E9E9E;" vertex="1" parent="NLD5sfoXQgCFImdVpocD-379">
          <mxGeometry x="10" y="100" width="24" height="24" as="geometry" />
        </mxCell>
        <mxCell id="NLD5sfoXQgCFImdVpocD-386" value="System Selection" style="shape=rect;strokeColor=none;fillColor=none;align=left;fontStyle=0;fontColor=#9E9E9E;" vertex="1" parent="NLD5sfoXQgCFImdVpocD-379">
          <mxGeometry x="46" y="100" width="200" height="24" as="geometry" />
        </mxCell>
        <mxCell id="NLD5sfoXQgCFImdVpocD-387" value="" style="shape=line;direction=north;strokeColor=#b3b3b3;" vertex="1" parent="NLD5sfoXQgCFImdVpocD-379">
          <mxGeometry x="17" y="130" width="10" height="30" as="geometry" />
        </mxCell>
        <mxCell id="NLD5sfoXQgCFImdVpocD-388" value="2" style="shape=ellipse;strokeColor=none;fontColor=#ffffff;fillColor=#9E9E9E;" vertex="1" parent="NLD5sfoXQgCFImdVpocD-379">
          <mxGeometry x="10" y="170" width="24" height="24" as="geometry" />
        </mxCell>
        <mxCell id="NLD5sfoXQgCFImdVpocD-389" value="Queries Against Data" style="shape=rect;strokeColor=none;fillColor=none;align=left;fontStyle=0;fontColor=#9E9E9E;" vertex="1" parent="NLD5sfoXQgCFImdVpocD-379">
          <mxGeometry x="46" y="170" width="200" height="24" as="geometry" />
        </mxCell>
        <mxCell id="NLD5sfoXQgCFImdVpocD-390" value="3" style="shape=ellipse;strokeColor=none;fillColor=#9e9e9e;fontColor=#ffffff;" vertex="1" parent="NLD5sfoXQgCFImdVpocD-379">
          <mxGeometry x="10" y="253" width="24" height="24" as="geometry" />
        </mxCell>
        <mxCell id="NLD5sfoXQgCFImdVpocD-391" value="Certification and Authorization" style="shape=rect;strokeColor=none;fillColor=none;align=left;fontColor=#aaaaaa;" vertex="1" parent="NLD5sfoXQgCFImdVpocD-379">
          <mxGeometry x="46" y="253" width="200" height="24" as="geometry" />
        </mxCell>
        <mxCell id="NLD5sfoXQgCFImdVpocD-392" value="" style="shape=line;direction=north;strokeColor=#b3b3b3;" vertex="1" parent="NLD5sfoXQgCFImdVpocD-379">
          <mxGeometry x="17" y="200" width="10" height="40" as="geometry" />
        </mxCell>
        <mxCell id="NLD5sfoXQgCFImdVpocD-393" value="Define the system that should have records held and specify the query or queries used to define those records." style="text;html=1;strokeColor=none;fillColor=none;align=left;verticalAlign=top;whiteSpace=wrap;rounded=0;shadow=1;dashed=1;labelBackgroundColor=none;sketch=0;fontSize=9;opacity=30;" vertex="1" parent="NLD5sfoXQgCFImdVpocD-379">
          <mxGeometry x="10" y="60" width="470" height="40" as="geometry" />
        </mxCell>
        <mxCell id="NLD5sfoXQgCFImdVpocD-394" value="You have determined that the &lt;b&gt;&lt;font style=&quot;font-size: 11px&quot;&gt;XX&lt;/font&gt;&lt;/b&gt; queries should be run against &lt;b&gt;&lt;font style=&quot;font-size: 11px&quot;&gt;Secret Squirrel System&lt;/font&gt;&lt;/b&gt;.&amp;nbsp;&amp;nbsp;" style="text;html=1;strokeColor=none;fillColor=none;align=left;verticalAlign=top;whiteSpace=wrap;rounded=0;shadow=1;dashed=1;labelBackgroundColor=none;sketch=0;fontSize=9;opacity=30;" vertex="1" parent="NLD5sfoXQgCFImdVpocD-379">
          <mxGeometry x="46" y="283" width="424" height="100.5" as="geometry" />
        </mxCell>
        <mxCell id="NLD5sfoXQgCFImdVpocD-395" value="I John McClane, certify that I am authorized to upload this data.&amp;nbsp;&amp;nbsp;" style="text;html=1;strokeColor=none;fillColor=none;align=left;verticalAlign=top;whiteSpace=wrap;rounded=0;shadow=1;dashed=1;labelBackgroundColor=none;sketch=0;fontSize=9;opacity=30;" vertex="1" parent="NLD5sfoXQgCFImdVpocD-379">
          <mxGeometry x="70" y="453" width="400" height="20" as="geometry" />
        </mxCell>
        <mxCell id="NLD5sfoXQgCFImdVpocD-396" value="" style="html=1;shadow=0;dashed=0;shape=mxgraph.atlassian.checkbox_2;fillColor=#0057D8;strokeColor=none;align=left;verticalAlign=middle;fontStyle=0;fontSize=12;labelPosition=right;verticalLabelPosition=middle;spacingLeft=10;rounded=1;sketch=0;" vertex="1" parent="NLD5sfoXQgCFImdVpocD-379">
          <mxGeometry x="46" y="457" width="12.000000000000002" height="12" as="geometry" />
        </mxCell>
        <mxCell id="fnqFiiGLVzJVubJjmA4e-2" value="My Assigned Tasks" style="text;html=1;strokeColor=none;fillColor=none;align=center;verticalAlign=middle;whiteSpace=wrap;rounded=0;fontColor=#999999;fontStyle=1;fontSize=20;" vertex="1" parent="NLD5sfoXQgCFImdVpocD-1">
          <mxGeometry x="310" y="-1600.5" width="206" height="20" as="geometry" />
        </mxCell>
        <mxCell id="fnqFiiGLVzJVubJjmA4e-3" value="My Group&#39;s Assigned Tasks" style="text;html=1;strokeColor=none;fillColor=none;align=center;verticalAlign=middle;whiteSpace=wrap;rounded=0;fontStyle=1;fontColor=#999999;fontSize=20;" vertex="1" parent="NLD5sfoXQgCFImdVpocD-1">
          <mxGeometry x="307" y="-1310" width="270" height="20" as="geometry" />
        </mxCell>
        <mxCell id="fnqFiiGLVzJVubJjmA4e-6" value="" style="fillColor=#f5f5f5;strokeColor=#666666;gradientColor=#b3b3b3;" vertex="1" parent="NLD5sfoXQgCFImdVpocD-1">
          <mxGeometry x="384.5" y="-979.5" width="30" height="100" as="geometry" />
        </mxCell>
        <mxCell id="fnqFiiGLVzJVubJjmA4e-7" value="" style="shape=mxgraph.arrows2.arrow;dy=0.4;dx=16;notch=0;direction=north;fillColor=#f5f5f5;strokeColor=#666666;gradientColor=#b3b3b3;" vertex="1" parent="fnqFiiGLVzJVubJjmA4e-6">
          <mxGeometry x="3" y="30" width="24" height="70" as="geometry" />
        </mxCell>
        <mxCell id="fnqFiiGLVzJVubJjmA4e-8" value="Label" style="text;html=1;align=center;verticalAlign=middle;whiteSpace=wrap;fontSize=10;gradientColor=#b3b3b3;fillColor=#f5f5f5;strokeColor=#666666;" vertex="1" parent="fnqFiiGLVzJVubJjmA4e-6">
          <mxGeometry width="30" height="20" as="geometry" />
        </mxCell>
        <mxCell id="fnqFiiGLVzJVubJjmA4e-9" value="" style="fillColor=#f5f5f5;strokeColor=#666666;gradientColor=#b3b3b3;" vertex="1" parent="NLD5sfoXQgCFImdVpocD-1">
          <mxGeometry x="419.5" y="-999.5" width="30" height="120" as="geometry" />
        </mxCell>
        <mxCell id="fnqFiiGLVzJVubJjmA4e-10" value="" style="shape=mxgraph.arrows2.arrow;dy=0.4;dx=16;notch=0;direction=south;fillColor=#f5f5f5;strokeColor=#666666;gradientColor=#b3b3b3;" vertex="1" parent="fnqFiiGLVzJVubJjmA4e-9">
          <mxGeometry x="3" width="24" height="80" as="geometry" />
        </mxCell>
        <mxCell id="fnqFiiGLVzJVubJjmA4e-11" value="Label" style="text;html=1;align=center;verticalAlign=middle;whiteSpace=wrap;fontSize=10;gradientColor=#b3b3b3;fillColor=#f5f5f5;strokeColor=#666666;" vertex="1" parent="fnqFiiGLVzJVubJjmA4e-9">
          <mxGeometry width="30" height="20" as="geometry" />
        </mxCell>
        <mxCell id="fnqFiiGLVzJVubJjmA4e-12" value="" style="fillColor=#f5f5f5;strokeColor=#666666;gradientColor=#b3b3b3;" vertex="1" parent="NLD5sfoXQgCFImdVpocD-1">
          <mxGeometry x="454.5" y="-1009.5" width="30" height="130" as="geometry" />
        </mxCell>
        <mxCell id="fnqFiiGLVzJVubJjmA4e-13" value="" style="shape=mxgraph.arrows2.arrow;dy=0.4;dx=16;notch=0;direction=north;fillColor=#f5f5f5;strokeColor=#666666;gradientColor=#b3b3b3;" vertex="1" parent="fnqFiiGLVzJVubJjmA4e-12">
          <mxGeometry x="3" y="80" width="24" height="50" as="geometry" />
        </mxCell>
        <mxCell id="fnqFiiGLVzJVubJjmA4e-14" value="Label" style="text;html=1;align=center;verticalAlign=middle;whiteSpace=wrap;fontSize=10;gradientColor=#b3b3b3;fillColor=#f5f5f5;strokeColor=#666666;" vertex="1" parent="fnqFiiGLVzJVubJjmA4e-12">
          <mxGeometry width="30" height="20" as="geometry" />
        </mxCell>
        <mxCell id="fnqFiiGLVzJVubJjmA4e-15" value="" style="fillColor=#f5f5f5;strokeColor=#666666;gradientColor=#b3b3b3;" vertex="1" parent="NLD5sfoXQgCFImdVpocD-1">
          <mxGeometry x="489.5" y="-959.5" width="30" height="80" as="geometry" />
        </mxCell>
        <mxCell id="fnqFiiGLVzJVubJjmA4e-16" value="" style="shape=mxgraph.arrows2.arrow;dy=0.4;dx=16;notch=0;direction=south;fillColor=#f5f5f5;strokeColor=#666666;gradientColor=#b3b3b3;" vertex="1" parent="fnqFiiGLVzJVubJjmA4e-15">
          <mxGeometry x="3" width="24" height="30" as="geometry" />
        </mxCell>
        <mxCell id="fnqFiiGLVzJVubJjmA4e-17" value="Label" style="text;html=1;align=center;verticalAlign=middle;whiteSpace=wrap;fontSize=10;gradientColor=#b3b3b3;fillColor=#f5f5f5;strokeColor=#666666;" vertex="1" parent="fnqFiiGLVzJVubJjmA4e-15">
          <mxGeometry width="30" height="20" as="geometry" />
        </mxCell>
        <mxCell id="fnqFiiGLVzJVubJjmA4e-18" value="" style="fillColor=#f5f5f5;strokeColor=#666666;gradientColor=#b3b3b3;" vertex="1" parent="NLD5sfoXQgCFImdVpocD-1">
          <mxGeometry x="524.5" y="-949.5" width="30" height="70" as="geometry" />
        </mxCell>
        <mxCell id="fnqFiiGLVzJVubJjmA4e-19" value="" style="shape=mxgraph.arrows2.arrow;dy=0.4;dx=16;notch=0;direction=north;fillColor=#f5f5f5;strokeColor=#666666;gradientColor=#b3b3b3;" vertex="1" parent="fnqFiiGLVzJVubJjmA4e-18">
          <mxGeometry x="3" y="10" width="24" height="60" as="geometry" />
        </mxCell>
        <mxCell id="fnqFiiGLVzJVubJjmA4e-20" value="Label" style="text;html=1;align=center;verticalAlign=middle;whiteSpace=wrap;fontSize=10;gradientColor=#b3b3b3;fillColor=#f5f5f5;strokeColor=#666666;" vertex="1" parent="fnqFiiGLVzJVubJjmA4e-18">
          <mxGeometry width="30" height="20" as="geometry" />
        </mxCell>
        <mxCell id="fnqFiiGLVzJVubJjmA4e-21" value="" style="html=1;verticalLabelPosition=bottom;align=center;labelBackgroundColor=#ffffff;verticalAlign=top;strokeWidth=2;strokeColor=#666666;shadow=0;dashed=0;shape=mxgraph.ios7.icons.pie_chart;fillColor=#f5f5f5;gradientColor=#b3b3b3;" vertex="1" parent="NLD5sfoXQgCFImdVpocD-1">
          <mxGeometry x="655.5" y="-981.5" width="140" height="112" as="geometry" />
        </mxCell>
        <mxCell id="fnqFiiGLVzJVubJjmA4e-22" value="" style="shape=image;html=1;verticalAlign=top;verticalLabelPosition=bottom;labelBackgroundColor=#ffffff;imageAspect=0;aspect=fixed;image=https://cdn2.iconfinder.com/data/icons/ios-7-icons/50/line_chart-128.png;strokeColor=#FF8000;fillColor=#FF8000;fontColor=#FFFFFF;" vertex="1" parent="NLD5sfoXQgCFImdVpocD-1">
          <mxGeometry x="935.5" y="-997.5" width="128" height="128" as="geometry" />
        </mxCell>
        <mxCell id="fnqFiiGLVzJVubJjmA4e-26" value="" style="shape=rect;strokeColor=#eeeeee;fillColor=#ffffff;shadow=1;whiteSpace=wrap;" vertex="1" parent="NLD5sfoXQgCFImdVpocD-1">
          <mxGeometry x="24.5" y="-1600.5" width="272" height="731" as="geometry" />
        </mxCell>
        <mxCell id="fnqFiiGLVzJVubJjmA4e-27" value="Datasets" style="text;verticalAlign=middle;spacing=0;spacingLeft=16;fontSize=15;resizeWidth=1;fontStyle=1" vertex="1" parent="fnqFiiGLVzJVubJjmA4e-26">
          <mxGeometry width="272" height="42" relative="1" as="geometry" />
        </mxCell>
        <mxCell id="fnqFiiGLVzJVubJjmA4e-28" value="Create and manage datasets and the objects within them." style="text;verticalAlign=middle;spacing=0;spacingLeft=16;fontSize=10;resizeWidth=1;fontColor=#808080;whiteSpace=wrap;" vertex="1" parent="fnqFiiGLVzJVubJjmA4e-26">
          <mxGeometry width="192" height="42" relative="1" as="geometry">
            <mxPoint y="22" as="offset" />
          </mxGeometry>
        </mxCell>
        <mxCell id="fnqFiiGLVzJVubJjmA4e-29" value="Digitizations" style="text;verticalAlign=middle;spacing=0;spacingLeft=16;fontSize=15;resizeWidth=1;fontStyle=1" vertex="1" parent="fnqFiiGLVzJVubJjmA4e-26">
          <mxGeometry width="272" height="42" relative="1" as="geometry">
            <mxPoint y="71" as="offset" />
          </mxGeometry>
        </mxCell>
        <mxCell id="fnqFiiGLVzJVubJjmA4e-30" value="Bulk ingest of standard files in a defined format." style="text;verticalAlign=middle;spacing=0;spacingLeft=16;fontSize=10;resizeWidth=1;fontColor=#808080;" vertex="1" parent="fnqFiiGLVzJVubJjmA4e-26">
          <mxGeometry width="272" height="42" relative="1" as="geometry">
            <mxPoint y="91" as="offset" />
          </mxGeometry>
        </mxCell>
        <mxCell id="fnqFiiGLVzJVubJjmA4e-31" value="Holding Pen" style="text;verticalAlign=middle;spacing=0;spacingLeft=16;fontSize=15;resizeWidth=1;fontStyle=1" vertex="1" parent="fnqFiiGLVzJVubJjmA4e-26">
          <mxGeometry width="272" height="42" relative="1" as="geometry">
            <mxPoint y="128" as="offset" />
          </mxGeometry>
        </mxCell>
        <mxCell id="fnqFiiGLVzJVubJjmA4e-32" value="Secure, short term storage for objects" style="text;verticalAlign=middle;spacing=0;spacingLeft=16;fontSize=10;resizeWidth=1;fontColor=#808080;" vertex="1" parent="fnqFiiGLVzJVubJjmA4e-26">
          <mxGeometry width="272" height="42" relative="1" as="geometry">
            <mxPoint y="146" as="offset" />
          </mxGeometry>
        </mxCell>
        <mxCell id="fnqFiiGLVzJVubJjmA4e-33" value="IMA Process" style="text;verticalAlign=middle;spacing=0;spacingLeft=16;fontSize=15;resizeWidth=1;fontStyle=1" vertex="1" parent="fnqFiiGLVzJVubJjmA4e-26">
          <mxGeometry width="272" height="42" relative="1" as="geometry">
            <mxPoint y="182" as="offset" />
          </mxGeometry>
        </mxCell>
        <mxCell id="fnqFiiGLVzJVubJjmA4e-34" value="Guide systems through the IMA Processs" style="text;verticalAlign=middle;spacing=0;spacingLeft=16;fontSize=10;resizeWidth=1;fontColor=#808080;" vertex="1" parent="fnqFiiGLVzJVubJjmA4e-26">
          <mxGeometry width="272" height="42" relative="1" as="geometry">
            <mxPoint y="199" as="offset" />
          </mxGeometry>
        </mxCell>
        <mxCell id="fnqFiiGLVzJVubJjmA4e-35" value="Metrics" style="text;verticalAlign=middle;spacing=0;spacingLeft=16;fontSize=15;resizeWidth=1;fillColor=none;fontStyle=1" vertex="1" parent="fnqFiiGLVzJVubJjmA4e-26">
          <mxGeometry width="272" height="42" relative="1" as="geometry">
            <mxPoint y="234" as="offset" />
          </mxGeometry>
        </mxCell>
        <mxCell id="fnqFiiGLVzJVubJjmA4e-36" value="View various records management metrics" style="text;verticalAlign=middle;spacing=0;spacingLeft=16;fontSize=10;resizeWidth=1;fontColor=#808080;" vertex="1" parent="fnqFiiGLVzJVubJjmA4e-26">
          <mxGeometry width="272" height="42" relative="1" as="geometry">
            <mxPoint y="252" as="offset" />
          </mxGeometry>
        </mxCell>
        <mxCell id="fnqFiiGLVzJVubJjmA4e-37" value="" style="shape=rect;strokeColor=none;fillColor=#dddddd;" vertex="1" parent="fnqFiiGLVzJVubJjmA4e-26">
          <mxGeometry x="1" width="4" height="190" relative="1" as="geometry">
            <mxPoint x="-4" y="125" as="offset" />
          </mxGeometry>
        </mxCell>
        <mxCell id="fnqFiiGLVzJVubJjmA4e-38" value="Search" style="text;verticalAlign=middle;spacing=0;spacingLeft=16;fontSize=15;resizeWidth=1;fontStyle=1" vertex="1" parent="fnqFiiGLVzJVubJjmA4e-26">
          <mxGeometry y="270.5029572974596" width="272" height="64.9090909090909" as="geometry" />
        </mxCell>
        <mxCell id="fnqFiiGLVzJVubJjmA4e-54" value="Search for objects across multiple datasets" style="text;verticalAlign=middle;spacing=0;spacingLeft=16;fontSize=10;resizeWidth=1;fontColor=#808080;" vertex="1" parent="fnqFiiGLVzJVubJjmA4e-26">
          <mxGeometry y="304.5" width="272" height="42" as="geometry" />
        </mxCell>
        <mxCell id="fnqFiiGLVzJVubJjmA4e-42" value="" style="rounded=0;whiteSpace=wrap;html=1;align=left;shadow=0;" vertex="1" parent="NLD5sfoXQgCFImdVpocD-1">
          <mxGeometry x="318" y="-1510" width="199" height="130" as="geometry" />
        </mxCell>
        <mxCell id="fnqFiiGLVzJVubJjmA4e-43" value="" style="rounded=0;whiteSpace=wrap;html=1;align=left;shadow=0;" vertex="1" parent="NLD5sfoXQgCFImdVpocD-1">
          <mxGeometry x="875" y="-1510" width="193" height="130" as="geometry" />
        </mxCell>
        <mxCell id="fnqFiiGLVzJVubJjmA4e-44" value="" style="rounded=0;whiteSpace=wrap;html=1;align=left;shadow=1;" vertex="1" parent="NLD5sfoXQgCFImdVpocD-1">
          <mxGeometry x="508" y="-1540" width="366" height="200" as="geometry" />
        </mxCell>
        <mxCell id="fnqFiiGLVzJVubJjmA4e-45" value="Go To" style="rounded=0;whiteSpace=wrap;html=1;fontColor=#FFFFFF;fillColor=#3333FF;strokeColor=#3333FF;" vertex="1" parent="NLD5sfoXQgCFImdVpocD-1">
          <mxGeometry x="640.5" y="-1400" width="120" height="30" as="geometry" />
        </mxCell>
        <mxCell id="fnqFiiGLVzJVubJjmA4e-46" value="" style="html=1;verticalLabelPosition=bottom;labelBackgroundColor=#ffffff;verticalAlign=top;shadow=0;dashed=0;strokeWidth=4;shape=mxgraph.ios7.misc.more;strokeColor=#a0a0a0;" vertex="1" parent="NLD5sfoXQgCFImdVpocD-1">
          <mxGeometry x="1056.5" y="-1452" width="7" height="14" as="geometry" />
        </mxCell>
        <mxCell id="fnqFiiGLVzJVubJjmA4e-47" value="" style="flipH=1;html=1;verticalLabelPosition=bottom;labelBackgroundColor=#ffffff;verticalAlign=top;shadow=0;dashed=0;strokeWidth=4;shape=mxgraph.ios7.misc.more;strokeColor=#a0a0a0;" vertex="1" parent="NLD5sfoXQgCFImdVpocD-1">
          <mxGeometry x="321.5" y="-1452" width="7" height="14" as="geometry" />
        </mxCell>
        <mxCell id="fnqFiiGLVzJVubJjmA4e-48" value="&lt;div&gt;&lt;font style=&quot;font-size: 20px&quot;&gt;Records Eligible for Disposition&lt;/font&gt;&lt;/div&gt;&lt;br style=&quot;font-size: 16px&quot;&gt;&lt;span style=&quot;font-weight: normal&quot;&gt;There are 500 records eligible for disposition found in 3 systems.&lt;/span&gt;" style="text;html=1;strokeColor=none;fillColor=none;align=center;verticalAlign=middle;whiteSpace=wrap;rounded=0;shadow=0;sketch=0;fontSize=10;fontColor=#808080;fontStyle=1" vertex="1" parent="NLD5sfoXQgCFImdVpocD-1">
          <mxGeometry x="533" y="-1507" width="323" height="94" as="geometry" />
        </mxCell>
        <mxCell id="fnqFiiGLVzJVubJjmA4e-49" value="Metrics Summary" style="text;html=1;strokeColor=none;fillColor=none;align=center;verticalAlign=middle;whiteSpace=wrap;rounded=0;fontStyle=1;fontColor=#999999;fontSize=20;" vertex="1" parent="NLD5sfoXQgCFImdVpocD-1">
          <mxGeometry x="321.5" y="-1051.5" width="180" height="20" as="geometry" />
        </mxCell>
        <mxCell id="fnqFiiGLVzJVubJjmA4e-63" value="" style="rounded=0;whiteSpace=wrap;html=1;align=left;shadow=0;" vertex="1" parent="NLD5sfoXQgCFImdVpocD-1">
          <mxGeometry x="316" y="-1245" width="199" height="130" as="geometry" />
        </mxCell>
        <mxCell id="fnqFiiGLVzJVubJjmA4e-64" value="" style="rounded=0;whiteSpace=wrap;html=1;align=left;shadow=0;" vertex="1" parent="NLD5sfoXQgCFImdVpocD-1">
          <mxGeometry x="873" y="-1245" width="193" height="130" as="geometry" />
        </mxCell>
        <mxCell id="fnqFiiGLVzJVubJjmA4e-65" value="" style="rounded=0;whiteSpace=wrap;html=1;align=left;shadow=1;" vertex="1" parent="NLD5sfoXQgCFImdVpocD-1">
          <mxGeometry x="506" y="-1275" width="366" height="200" as="geometry" />
        </mxCell>
        <mxCell id="fnqFiiGLVzJVubJjmA4e-66" value="Go To" style="rounded=0;whiteSpace=wrap;html=1;fontColor=#FFFFFF;fillColor=#3333FF;strokeColor=#3333FF;" vertex="1" parent="NLD5sfoXQgCFImdVpocD-1">
          <mxGeometry x="638.5" y="-1135" width="120" height="30" as="geometry" />
        </mxCell>
        <mxCell id="fnqFiiGLVzJVubJjmA4e-67" value="" style="html=1;verticalLabelPosition=bottom;labelBackgroundColor=#ffffff;verticalAlign=top;shadow=0;dashed=0;strokeWidth=4;shape=mxgraph.ios7.misc.more;strokeColor=#a0a0a0;" vertex="1" parent="NLD5sfoXQgCFImdVpocD-1">
          <mxGeometry x="973" y="-1193" width="7" height="14" as="geometry" />
        </mxCell>
        <mxCell id="fnqFiiGLVzJVubJjmA4e-68" value="" style="flipH=1;html=1;verticalLabelPosition=bottom;labelBackgroundColor=#ffffff;verticalAlign=top;shadow=0;dashed=0;strokeWidth=4;shape=mxgraph.ios7.misc.more;strokeColor=#a0a0a0;" vertex="1" parent="NLD5sfoXQgCFImdVpocD-1">
          <mxGeometry x="360.5" y="-1193" width="7" height="14" as="geometry" />
        </mxCell>
        <mxCell id="fnqFiiGLVzJVubJjmA4e-69" value="&lt;div&gt;&lt;font style=&quot;font-size: 12px&quot;&gt;IMA Process Assignment(s)&lt;/font&gt;&lt;/div&gt;&lt;br style=&quot;font-size: 16px&quot;&gt;&lt;span style=&quot;font-weight: normal&quot;&gt;&lt;font style=&quot;font-size: 8px&quot;&gt;There are 2 new Systems awaiting IMA Process Review.&lt;/font&gt;&lt;/span&gt;" style="text;html=1;strokeColor=none;fillColor=none;align=center;verticalAlign=middle;whiteSpace=wrap;rounded=0;shadow=0;sketch=0;fontSize=10;fontColor=#808080;fontStyle=1" vertex="1" parent="NLD5sfoXQgCFImdVpocD-1">
          <mxGeometry x="884.5" y="-1487" width="170" height="84" as="geometry" />
        </mxCell>
        <mxCell id="fnqFiiGLVzJVubJjmA4e-70" value="&lt;div&gt;&lt;font style=&quot;font-size: 20px&quot;&gt;IMA Process Assignment(s)&lt;/font&gt;&lt;/div&gt;&lt;br style=&quot;font-size: 16px&quot;&gt;&lt;span style=&quot;font-weight: normal&quot;&gt;&lt;font style=&quot;font-size: 10px&quot;&gt;There are 2 new Systems awaiting IMA Process Review.&lt;/font&gt;&lt;/span&gt;" style="text;html=1;strokeColor=none;fillColor=none;align=center;verticalAlign=middle;whiteSpace=wrap;rounded=0;shadow=0;sketch=0;fontSize=10;fontColor=#808080;fontStyle=1" vertex="1" parent="NLD5sfoXQgCFImdVpocD-1">
          <mxGeometry x="541" y="-1245" width="300" height="84" as="geometry" />
        </mxCell>
        <mxCell id="h-ptjZ4Be4jbQjIiCnFG-3" value="" style="rounded=0;whiteSpace=wrap;html=1;fillColor=#3333FF;" vertex="1" parent="NLD5sfoXQgCFImdVpocD-1">
          <mxGeometry x="19.5" y="50" width="1069" height="60" as="geometry" />
        </mxCell>
        <mxCell id="h-ptjZ4Be4jbQjIiCnFG-4" value="&lt;font style=&quot;font-size: 14px&quot;&gt;FEEDBACK&lt;/font&gt;" style="rounded=1;whiteSpace=wrap;html=1;fillColor=#FF8000;strokeColor=#FF8000;fontColor=#FFFFFF;" vertex="1" parent="NLD5sfoXQgCFImdVpocD-1">
          <mxGeometry x="956.5" y="60" width="120" height="40" as="geometry" />
        </mxCell>
        <mxCell id="h-ptjZ4Be4jbQjIiCnFG-5" value="" style="shape=image;html=1;verticalAlign=top;verticalLabelPosition=bottom;labelBackgroundColor=#ffffff;imageAspect=0;aspect=fixed;image=https://cdn3.iconfinder.com/data/icons/social-media-2125/78/bell-128.png;strokeColor=#FF8000;fillColor=#FF8000;fontColor=#FFFFFF;" vertex="1" parent="NLD5sfoXQgCFImdVpocD-1">
          <mxGeometry x="894.5" y="60" width="37" height="37" as="geometry" />
        </mxCell>
        <mxCell id="h-ptjZ4Be4jbQjIiCnFG-6" value="" style="whiteSpace=wrap;html=1;shape=mxgraph.basic.octagon2;align=center;verticalAlign=middle;dx=12;shadow=0;sketch=0;fontSize=20;fontColor=#808080;fillColor=#FF8000;strokeColor=#FF8000;" vertex="1" parent="NLD5sfoXQgCFImdVpocD-1">
          <mxGeometry x="29.5" y="56.5" width="56" height="42" as="geometry" />
        </mxCell>
        <mxCell id="h-ptjZ4Be4jbQjIiCnFG-7" value="Eva" style="text;html=1;strokeColor=none;fillColor=none;align=center;verticalAlign=middle;whiteSpace=wrap;rounded=0;shadow=0;sketch=0;fontSize=20;fontColor=#FFFFFF;fontStyle=1" vertex="1" parent="NLD5sfoXQgCFImdVpocD-1">
          <mxGeometry x="95.5" y="70" width="40" height="20" as="geometry" />
        </mxCell>
        <mxCell id="h-ptjZ4Be4jbQjIiCnFG-8" value="" style="html=1;verticalLabelPosition=bottom;align=center;labelBackgroundColor=#ffffff;verticalAlign=top;strokeWidth=2;shadow=0;dashed=0;shape=mxgraph.ios7.icons.user;sketch=0;fontSize=20;fontColor=#FFFFFF;fillColor=#FFFFFF;" vertex="1" parent="NLD5sfoXQgCFImdVpocD-1">
          <mxGeometry x="742.5" y="65" width="30" height="30" as="geometry" />
        </mxCell>
        <mxCell id="h-ptjZ4Be4jbQjIiCnFG-9" value="John Doe" style="text;html=1;strokeColor=none;fillColor=none;align=center;verticalAlign=middle;whiteSpace=wrap;rounded=0;shadow=0;sketch=0;fontSize=19;fontColor=#FFFFFF;" vertex="1" parent="NLD5sfoXQgCFImdVpocD-1">
          <mxGeometry x="786" y="70" width="94" height="20" as="geometry" />
        </mxCell>
        <mxCell id="h-ptjZ4Be4jbQjIiCnFG-10" value="&amp;lt;Classification Here&amp;gt;" style="rounded=0;whiteSpace=wrap;html=1;shadow=0;sketch=0;fontSize=12;align=center;fillColor=#FFFF33;" vertex="1" parent="NLD5sfoXQgCFImdVpocD-1">
          <mxGeometry x="19.5" y="30" width="1069" height="20" as="geometry" />
        </mxCell>
        <mxCell id="h-ptjZ4Be4jbQjIiCnFG-11" value="" style="rounded=0;whiteSpace=wrap;html=1;" vertex="1" parent="NLD5sfoXQgCFImdVpocD-1">
          <mxGeometry x="19.5" y="110" width="1069" height="750" as="geometry" />
        </mxCell>
        <mxCell id="h-ptjZ4Be4jbQjIiCnFG-12" value="" style="line;strokeWidth=1;fillColor=none;align=left;verticalAlign=middle;spacingTop=-1;spacingLeft=3;spacingRight=3;rotatable=0;labelPosition=right;points=[];portConstraint=eastwest;sketch=0;direction=south;" vertex="1" parent="NLD5sfoXQgCFImdVpocD-1">
          <mxGeometry x="274.5" y="189" width="8" height="671" as="geometry" />
        </mxCell>
        <mxCell id="h-ptjZ4Be4jbQjIiCnFG-13" value="" style="group;labelBackgroundColor=#ffffff;" connectable="0" vertex="1" parent="NLD5sfoXQgCFImdVpocD-1">
          <mxGeometry x="338.5" y="121" width="555" height="60" as="geometry" />
        </mxCell>
        <mxCell id="h-ptjZ4Be4jbQjIiCnFG-14" value="" style="html=1;shadow=0;dashed=0;fillColor=#F8F9FA;strokeColor=none;fontSize=16;fontColor=#181819;align=left;spacing=15;" vertex="1" parent="h-ptjZ4Be4jbQjIiCnFG-13">
          <mxGeometry width="555" height="60" as="geometry" />
        </mxCell>
        <mxCell id="h-ptjZ4Be4jbQjIiCnFG-15" value="Search" style="html=1;shadow=0;dashed=0;shape=mxgraph.bootstrap.rrect;rSize=5;fontSize=14;fontColor=#6C767D;strokeColor=#CED4DA;fillColor=#ffffff;align=left;spacing=10;" vertex="1" parent="h-ptjZ4Be4jbQjIiCnFG-14">
          <mxGeometry width="470" height="40" relative="1" as="geometry">
            <mxPoint x="10" y="10" as="offset" />
          </mxGeometry>
        </mxCell>
        <mxCell id="h-ptjZ4Be4jbQjIiCnFG-16" value="" style="ellipse;whiteSpace=wrap;html=1;fillColor=#FFFFFF;" vertex="1" parent="h-ptjZ4Be4jbQjIiCnFG-14">
          <mxGeometry x="425.67961165048536" y="22" width="10.776699029126211" height="10" as="geometry" />
        </mxCell>
        <mxCell id="h-ptjZ4Be4jbQjIiCnFG-17" value="" style="endArrow=none;html=1;" edge="1" parent="h-ptjZ4Be4jbQjIiCnFG-14">
          <mxGeometry width="50" height="50" relative="1" as="geometry">
            <mxPoint x="436.4563106796116" y="32" as="sourcePoint" />
            <mxPoint x="436.4563106796116" y="32" as="targetPoint" />
            <Array as="points">
              <mxPoint x="447.23300970873777" y="40" />
            </Array>
          </mxGeometry>
        </mxCell>
        <mxCell id="h-ptjZ4Be4jbQjIiCnFG-18" value="" style="triangle;whiteSpace=wrap;html=1;rotation=90;fillColor=#000000;" vertex="1" parent="h-ptjZ4Be4jbQjIiCnFG-14">
          <mxGeometry x="458.00970873786395" y="25" width="10.776699029126211" height="10" as="geometry" />
        </mxCell>
        <mxCell id="h-ptjZ4Be4jbQjIiCnFG-19" value="" style="shape=ellipse;dashed=0;strokeColor=none;shadow=1;fontSize=13;align=center;verticalAlign=top;labelPosition=center;verticalLabelPosition=bottom;html=1;aspect=fixed;" vertex="1" parent="h-ptjZ4Be4jbQjIiCnFG-13">
          <mxGeometry x="492.5" y="10" width="40" height="40" as="geometry" />
        </mxCell>
        <mxCell id="h-ptjZ4Be4jbQjIiCnFG-20" value="" style="dashed=0;html=1;shape=mxgraph.gmdl.plus;strokeColor=#737373;strokeWidth=2;shadow=0;" vertex="1" parent="h-ptjZ4Be4jbQjIiCnFG-19">
          <mxGeometry x="12" y="12" width="16" height="16" as="geometry" />
        </mxCell>
        <mxCell id="h-ptjZ4Be4jbQjIiCnFG-21" value="" style="line;strokeWidth=1;fillColor=none;align=left;verticalAlign=middle;spacingTop=-1;spacingLeft=3;spacingRight=3;rotatable=0;labelPosition=right;points=[];portConstraint=eastwest;sketch=0;direction=west;" vertex="1" parent="NLD5sfoXQgCFImdVpocD-1">
          <mxGeometry x="21.5" y="184" width="1067" height="8" as="geometry" />
        </mxCell>
        <mxCell id="h-ptjZ4Be4jbQjIiCnFG-22" value="" style="line;strokeWidth=1;fillColor=none;align=left;verticalAlign=middle;spacingTop=-1;spacingLeft=3;spacingRight=3;rotatable=0;labelPosition=right;points=[];portConstraint=eastwest;sketch=0;direction=south;" vertex="1" parent="NLD5sfoXQgCFImdVpocD-1">
          <mxGeometry x="550.5" y="229" width="8" height="630" as="geometry" />
        </mxCell>
        <mxCell id="h-ptjZ4Be4jbQjIiCnFG-23" value="" style="perimeter=none;dashed=0;shape=mxgraph.gmdl.triangle;strokeColor=none;fillColor=#666666;direction=south;aspect=fixed;" vertex="1" parent="NLD5sfoXQgCFImdVpocD-1">
          <mxGeometry x="264.5" y="531" width="8" height="16" as="geometry">
            <mxPoint x="-27" as="offset" />
          </mxGeometry>
        </mxCell>
        <mxCell id="h-ptjZ4Be4jbQjIiCnFG-24" value="" style="rounded=0;whiteSpace=wrap;html=1;fontSize=20;align=left;fillColor=#3333FF;" vertex="1" parent="NLD5sfoXQgCFImdVpocD-1">
          <mxGeometry x="278.5" y="188" width="276" height="40" as="geometry" />
        </mxCell>
        <mxCell id="h-ptjZ4Be4jbQjIiCnFG-25" value="" style="html=1;shadow=0;dashed=0;shape=mxgraph.bootstrap.rrect;rSize=5;strokeColor=#DFDFDF;html=1;whiteSpace=wrap;fillColor=#FFFFFF;fontColor=#495057;" vertex="1" parent="NLD5sfoXQgCFImdVpocD-1">
          <mxGeometry x="281.5" y="230" width="260" height="300" as="geometry" />
        </mxCell>
        <mxCell id="h-ptjZ4Be4jbQjIiCnFG-26" value="&lt;font style=&quot;font-size: 16px&quot;&gt;System X&lt;/font&gt;&lt;br&gt;Records Eligible:&amp;nbsp; 275&lt;br&gt;RCS Values Applied:&amp;nbsp; RCS 12-34 10b,&lt;br&gt;RCS 56-78 1a, FRCS 30-1a" style="html=1;shadow=0;dashed=0;shape=mxgraph.bootstrap.topButton;rSize=5;perimeter=none;whiteSpace=wrap;resizeWidth=1;align=left;spacing=10;verticalAlign=top;fillColor=#0085FC;strokeColor=#0085FC;fontColor=#ffffff;" vertex="1" parent="h-ptjZ4Be4jbQjIiCnFG-25">
          <mxGeometry width="260" height="100" relative="1" as="geometry" />
        </mxCell>
        <mxCell id="h-ptjZ4Be4jbQjIiCnFG-27" value="&lt;span style=&quot;font-size: 16px&quot;&gt;IMS Repo&lt;/span&gt;&lt;br&gt;&lt;span&gt;Records Eligible:&amp;nbsp; 125&lt;/span&gt;&lt;br&gt;&lt;span&gt;RCS Values Applied:&amp;nbsp; FRCS 10-5b&lt;/span&gt;" style="strokeColor=inherit;fillColor=inherit;gradientColor=inherit;fontColor=inherit;html=1;shadow=0;dashed=0;perimeter=none;whiteSpace=wrap;resizeWidth=1;align=left;spacing=10;" vertex="1" parent="h-ptjZ4Be4jbQjIiCnFG-25">
          <mxGeometry width="260" height="100" relative="1" as="geometry">
            <mxPoint y="100" as="offset" />
          </mxGeometry>
        </mxCell>
        <mxCell id="h-ptjZ4Be4jbQjIiCnFG-28" value="&lt;font style=&quot;font-size: 16px&quot;&gt;IDL&lt;/font&gt;&lt;br&gt;Records Eligible:&amp;nbsp; 100&lt;br&gt;RCS Values Applied:&amp;nbsp; GRS 3.4 010" style="strokeColor=inherit;fillColor=inherit;gradientColor=inherit;fontColor=inherit;html=1;shadow=0;dashed=0;shape=mxgraph.bootstrap.bottomButton;rSize=5;perimeter=none;whiteSpace=wrap;resizeWidth=1;resizeHeight=0;align=left;spacing=10;" vertex="1" parent="h-ptjZ4Be4jbQjIiCnFG-25">
          <mxGeometry y="1" width="260" height="100" relative="1" as="geometry">
            <mxPoint y="-100" as="offset" />
          </mxGeometry>
        </mxCell>
        <mxCell id="h-ptjZ4Be4jbQjIiCnFG-29" value="Datasets" style="text;html=1;strokeColor=none;fillColor=none;align=left;verticalAlign=middle;whiteSpace=wrap;rounded=0;labelPosition=center;verticalLabelPosition=middle;fontSize=16;fontStyle=1;fontColor=#FFFFFF;" vertex="1" parent="NLD5sfoXQgCFImdVpocD-1">
          <mxGeometry x="285.5" y="198" width="258" height="20" as="geometry" />
        </mxCell>
        <mxCell id="h-ptjZ4Be4jbQjIiCnFG-30" value="" style="html=1;verticalLabelPosition=bottom;labelBackgroundColor=#ffffff;verticalAlign=top;shadow=0;dashed=0;strokeWidth=2;shape=mxgraph.ios7.misc.scroll_(vertical);fillColor=#a0a0a0;sketch=0;" vertex="1" parent="NLD5sfoXQgCFImdVpocD-1">
          <mxGeometry x="546.5" y="237" width="6" height="80" as="geometry" />
        </mxCell>
        <mxCell id="h-ptjZ4Be4jbQjIiCnFG-57" value="Fav:" style="text;html=1;strokeColor=none;fillColor=none;align=center;verticalAlign=middle;whiteSpace=wrap;rounded=0;shadow=0;sketch=0;fontSize=10;fontColor=#FFFFFF;" vertex="1" parent="NLD5sfoXQgCFImdVpocD-1">
          <mxGeometry x="484.5" y="198" width="40" height="20" as="geometry" />
        </mxCell>
        <mxCell id="h-ptjZ4Be4jbQjIiCnFG-58" value="" style="shape=image;html=1;verticalAlign=top;verticalLabelPosition=bottom;labelBackgroundColor=#ffffff;imageAspect=0;aspect=fixed;image=https://cdn2.iconfinder.com/data/icons/font-awesome/1792/sort-alpha-asc-128.png;rounded=1;shadow=1;sketch=0;strokeColor=#000000;fillColor=#4285F4;fontSize=11;align=left;fontColor=#97D077;" vertex="1" parent="NLD5sfoXQgCFImdVpocD-1">
          <mxGeometry x="467.5" y="201" width="15" height="15" as="geometry" />
        </mxCell>
        <mxCell id="h-ptjZ4Be4jbQjIiCnFG-59" value="" style="fillColor=#36B37E;strokeColor=none;rounded=1;arcSize=50;shadow=1;sketch=0;fontSize=11;fontColor=#FFFFFF;align=left;" vertex="1" parent="NLD5sfoXQgCFImdVpocD-1">
          <mxGeometry x="518.5" y="201" width="30" height="16" as="geometry" />
        </mxCell>
        <mxCell id="h-ptjZ4Be4jbQjIiCnFG-60" value="PII Type" style="rounded=1;fillColor=#F1F2F4;strokeColor=none;html=1;fontColor=#596780;align=left;fontSize=12;spacingLeft=10;shadow=0;sketch=0;" vertex="1" parent="NLD5sfoXQgCFImdVpocD-1">
          <mxGeometry x="38.5" y="280" width="230" height="30" as="geometry" />
        </mxCell>
        <mxCell id="h-ptjZ4Be4jbQjIiCnFG-61" value="" style="shape=triangle;direction=south;fillColor=#596780;strokeColor=none;html=1" vertex="1" parent="h-ptjZ4Be4jbQjIiCnFG-60">
          <mxGeometry x="1" y="0.5" width="12" height="6" relative="1" as="geometry">
            <mxPoint x="-20" y="-3" as="offset" />
          </mxGeometry>
        </mxCell>
        <mxCell id="h-ptjZ4Be4jbQjIiCnFG-62" value="Select RCS" style="rounded=1;fillColor=#F1F2F4;strokeColor=none;html=1;fontColor=#596780;align=left;fontSize=12;spacingLeft=10;shadow=0;sketch=0;" vertex="1" parent="NLD5sfoXQgCFImdVpocD-1">
          <mxGeometry x="38.5" y="230" width="230" height="30" as="geometry" />
        </mxCell>
        <mxCell id="h-ptjZ4Be4jbQjIiCnFG-63" value="" style="shape=triangle;direction=south;fillColor=#596780;strokeColor=none;html=1" vertex="1" parent="h-ptjZ4Be4jbQjIiCnFG-62">
          <mxGeometry x="1" y="0.5" width="12" height="6" relative="1" as="geometry">
            <mxPoint x="-20" y="-3" as="offset" />
          </mxGeometry>
        </mxCell>
        <mxCell id="h-ptjZ4Be4jbQjIiCnFG-64" value="Record Type" style="rounded=1;fillColor=#F1F2F4;strokeColor=none;html=1;fontColor=#596780;align=left;fontSize=12;spacingLeft=10;shadow=0;sketch=0;" vertex="1" parent="NLD5sfoXQgCFImdVpocD-1">
          <mxGeometry x="38.5" y="330" width="230" height="30" as="geometry" />
        </mxCell>
        <mxCell id="h-ptjZ4Be4jbQjIiCnFG-65" value="" style="shape=triangle;direction=south;fillColor=#596780;strokeColor=none;html=1" vertex="1" parent="h-ptjZ4Be4jbQjIiCnFG-64">
          <mxGeometry x="1" y="0.5" width="12" height="6" relative="1" as="geometry">
            <mxPoint x="-20" y="-3" as="offset" />
          </mxGeometry>
        </mxCell>
        <mxCell id="h-ptjZ4Be4jbQjIiCnFG-66" value="Select Format&amp;nbsp;" style="rounded=1;fillColor=#F1F2F4;strokeColor=none;html=1;fontColor=#596780;align=left;fontSize=12;spacingLeft=10;shadow=0;sketch=0;" vertex="1" parent="NLD5sfoXQgCFImdVpocD-1">
          <mxGeometry x="38.5" y="379" width="230" height="30" as="geometry" />
        </mxCell>
        <mxCell id="h-ptjZ4Be4jbQjIiCnFG-67" value="" style="shape=triangle;direction=south;fillColor=#596780;strokeColor=none;html=1" vertex="1" parent="h-ptjZ4Be4jbQjIiCnFG-66">
          <mxGeometry x="1" y="0.5" width="12" height="6" relative="1" as="geometry">
            <mxPoint x="-20" y="-3" as="offset" />
          </mxGeometry>
        </mxCell>
        <mxCell id="h-ptjZ4Be4jbQjIiCnFG-68" value="Location" style="rounded=1;fillColor=#F1F2F4;strokeColor=none;html=1;fontColor=#596780;align=left;fontSize=12;spacingLeft=10;shadow=0;sketch=0;" vertex="1" parent="NLD5sfoXQgCFImdVpocD-1">
          <mxGeometry x="38.5" y="424" width="230" height="30" as="geometry" />
        </mxCell>
        <mxCell id="h-ptjZ4Be4jbQjIiCnFG-69" value="" style="shape=triangle;direction=south;fillColor=#596780;strokeColor=none;html=1" vertex="1" parent="h-ptjZ4Be4jbQjIiCnFG-68">
          <mxGeometry x="1" y="0.5" width="12" height="6" relative="1" as="geometry">
            <mxPoint x="-20" y="-3" as="offset" />
          </mxGeometry>
        </mxCell>
        <mxCell id="h-ptjZ4Be4jbQjIiCnFG-70" value="&lt;font color=&quot;#000000&quot; style=&quot;font-size: 11px&quot;&gt;Originating Organization&lt;br&gt;&lt;/font&gt;" style="text;html=1;strokeColor=none;fillColor=none;align=left;verticalAlign=middle;whiteSpace=wrap;rounded=0;shadow=0;sketch=0;fontSize=11;fontColor=#0645AD;" vertex="1" parent="NLD5sfoXQgCFImdVpocD-1">
          <mxGeometry x="26" y="480" width="179" height="20" as="geometry" />
        </mxCell>
        <mxCell id="h-ptjZ4Be4jbQjIiCnFG-71" value="Level 4" style="rounded=1;fillColor=#F1F2F4;strokeColor=none;html=1;fontColor=#596780;align=left;fontSize=12;spacingLeft=10;shadow=0;sketch=0;" vertex="1" parent="NLD5sfoXQgCFImdVpocD-1">
          <mxGeometry x="38.5" y="617" width="80" height="30" as="geometry" />
        </mxCell>
        <mxCell id="h-ptjZ4Be4jbQjIiCnFG-72" value="" style="shape=triangle;direction=south;fillColor=#596780;strokeColor=none;html=1" vertex="1" parent="h-ptjZ4Be4jbQjIiCnFG-71">
          <mxGeometry x="1" y="0.5" width="12" height="6" relative="1" as="geometry">
            <mxPoint x="-20" y="-3" as="offset" />
          </mxGeometry>
        </mxCell>
        <mxCell id="h-ptjZ4Be4jbQjIiCnFG-73" value="Level 5" style="rounded=1;fillColor=#F1F2F4;strokeColor=none;html=1;fontColor=#596780;align=left;fontSize=12;spacingLeft=10;shadow=0;sketch=0;" vertex="1" parent="NLD5sfoXQgCFImdVpocD-1">
          <mxGeometry x="38.5" y="659" width="80" height="30" as="geometry" />
        </mxCell>
        <mxCell id="h-ptjZ4Be4jbQjIiCnFG-74" value="" style="shape=triangle;direction=south;fillColor=#596780;strokeColor=none;html=1" vertex="1" parent="h-ptjZ4Be4jbQjIiCnFG-73">
          <mxGeometry x="1" y="0.5" width="12" height="6" relative="1" as="geometry">
            <mxPoint x="-20" y="-3" as="offset" />
          </mxGeometry>
        </mxCell>
        <mxCell id="h-ptjZ4Be4jbQjIiCnFG-75" value="Level 1" style="rounded=1;fillColor=#F1F2F4;strokeColor=none;html=1;fontColor=#596780;align=left;fontSize=12;spacingLeft=10;shadow=0;sketch=0;" vertex="1" parent="NLD5sfoXQgCFImdVpocD-1">
          <mxGeometry x="38.5" y="503.5" width="80" height="30" as="geometry" />
        </mxCell>
        <mxCell id="h-ptjZ4Be4jbQjIiCnFG-76" value="" style="shape=triangle;direction=south;fillColor=#596780;strokeColor=none;html=1" vertex="1" parent="h-ptjZ4Be4jbQjIiCnFG-75">
          <mxGeometry x="1" y="0.5" width="12" height="6" relative="1" as="geometry">
            <mxPoint x="-20" y="-3" as="offset" />
          </mxGeometry>
        </mxCell>
        <mxCell id="h-ptjZ4Be4jbQjIiCnFG-77" value="Level 2" style="rounded=1;fillColor=#F1F2F4;strokeColor=none;html=1;fontColor=#596780;align=left;fontSize=12;spacingLeft=10;shadow=0;sketch=0;" vertex="1" parent="NLD5sfoXQgCFImdVpocD-1">
          <mxGeometry x="38.5" y="539" width="80" height="30" as="geometry" />
        </mxCell>
        <mxCell id="h-ptjZ4Be4jbQjIiCnFG-78" value="" style="shape=triangle;direction=south;fillColor=#596780;strokeColor=none;html=1" vertex="1" parent="h-ptjZ4Be4jbQjIiCnFG-77">
          <mxGeometry x="1" y="0.5" width="12" height="6" relative="1" as="geometry">
            <mxPoint x="-20" y="-3" as="offset" />
          </mxGeometry>
        </mxCell>
        <mxCell id="h-ptjZ4Be4jbQjIiCnFG-79" value="Filter" style="html=1;shadow=0;dashed=0;shape=mxgraph.bootstrap.rrect;rSize=5;fillColor=#0085FC;strokeColor=none;fontColor=#FFFFFF;fontSize=14;" vertex="1" parent="NLD5sfoXQgCFImdVpocD-1">
          <mxGeometry x="109" y="810" width="91" height="40" as="geometry" />
        </mxCell>
        <mxCell id="h-ptjZ4Be4jbQjIiCnFG-80" value="Cancel" style="html=1;shadow=0;dashed=0;shape=mxgraph.bootstrap.rrect;rSize=5;fillColor=#6C757D;strokeColor=none;fontColor=#FFFFFF;fontSize=14;" vertex="1" parent="NLD5sfoXQgCFImdVpocD-1">
          <mxGeometry x="204.5" y="810" width="70" height="40" as="geometry" />
        </mxCell>
        <mxCell id="h-ptjZ4Be4jbQjIiCnFG-81" value="&lt;font color=&quot;#666666&quot; style=&quot;font-size: 16px;&quot;&gt;Filter&lt;/font&gt;" style="text;strokeColor=none;fillColor=none;html=1;fontSize=16;fontStyle=1;verticalAlign=middle;align=center;labelBackgroundColor=none;sketch=0;" vertex="1" parent="NLD5sfoXQgCFImdVpocD-1">
          <mxGeometry x="18.5" y="187" width="77" height="32" as="geometry" />
        </mxCell>
        <mxCell id="h-ptjZ4Be4jbQjIiCnFG-82" value="Level 3" style="rounded=1;fillColor=#F1F2F4;strokeColor=none;html=1;fontColor=#596780;align=left;fontSize=12;spacingLeft=10;shadow=0;sketch=0;" vertex="1" parent="NLD5sfoXQgCFImdVpocD-1">
          <mxGeometry x="38.5" y="578" width="80" height="30" as="geometry" />
        </mxCell>
        <mxCell id="h-ptjZ4Be4jbQjIiCnFG-83" value="" style="shape=triangle;direction=south;fillColor=#596780;strokeColor=none;html=1" vertex="1" parent="h-ptjZ4Be4jbQjIiCnFG-82">
          <mxGeometry x="1" y="0.5" width="12" height="6" relative="1" as="geometry">
            <mxPoint x="-20" y="-3" as="offset" />
          </mxGeometry>
        </mxCell>
        <mxCell id="h-ptjZ4Be4jbQjIiCnFG-84" value="" style="line;strokeWidth=1;fillColor=none;align=left;verticalAlign=middle;spacingTop=-1;spacingLeft=3;spacingRight=3;rotatable=0;labelPosition=right;points=[];portConstraint=eastwest;strokeColor=#E6E6E6;" vertex="1" parent="NLD5sfoXQgCFImdVpocD-1">
          <mxGeometry x="19.5" y="798" width="259" height="8" as="geometry" />
        </mxCell>
        <mxCell id="h-ptjZ4Be4jbQjIiCnFG-108" value="" style="group" connectable="0" vertex="1" parent="NLD5sfoXQgCFImdVpocD-1">
          <mxGeometry x="350" y="-660" width="530" height="500" as="geometry" />
        </mxCell>
        <mxCell id="h-ptjZ4Be4jbQjIiCnFG-109" value="System X" style="shape=rect;fillColor=#ffffff;strokeColor=#eeeeee;shadow=1;fontColor=#000000;fontSize=23;fontStyle=0;verticalAlign=top;spacingBottom=0;spacingLeft=16;spacingTop=20;align=left;rounded=0;" vertex="1" parent="h-ptjZ4Be4jbQjIiCnFG-108">
          <mxGeometry width="530" height="500" as="geometry" />
        </mxCell>
        <mxCell id="h-ptjZ4Be4jbQjIiCnFG-110" value="Guide: 123456/1258d25s8f22f" style="text;fontSize=12;fontStyle=4;verticalAlign=middle;spacingBottom=0;spacingLeft=16;resizeWidth=1;fontColor=#0645AD;" vertex="1" parent="h-ptjZ4Be4jbQjIiCnFG-109">
          <mxGeometry width="530" height="20" relative="1" as="geometry">
            <mxPoint y="59" as="offset" />
          </mxGeometry>
        </mxCell>
        <mxCell id="h-ptjZ4Be4jbQjIiCnFG-111" value="Description:&#xa;&#xa;&#xa;Originating Org:&#xa;&#xa;Data Steward:&#xa;&#xa;Location:&#xa;&#xa;Data Classification:&#xa;&#xa;RCS Value(s):&#xa;&#xa;PII:&#xa;&#xa;PII Type:&#xa;&#xa;System of Record:&#xa;&#xa;IMO Assigned:&#xa;" style="text;whiteSpace=wrap;fontSize=13;spacing=16;spacingTop=-4;resizeWidth=1;resizeHeight=1;fontStyle=1" vertex="1" parent="h-ptjZ4Be4jbQjIiCnFG-109">
          <mxGeometry width="163.07692307692312" height="333.3333333333333" relative="1" as="geometry">
            <mxPoint y="120" as="offset" />
          </mxGeometry>
        </mxCell>
        <mxCell id="h-ptjZ4Be4jbQjIiCnFG-112" value="Assign" style="shape=rect;strokeColor=#666666;fontColor=#333333;fontStyle=1;shadow=1;rounded=1;fillColor=#F8F9FA;" vertex="1" parent="h-ptjZ4Be4jbQjIiCnFG-109">
          <mxGeometry y="1" width="70" height="40" relative="1" as="geometry">
            <mxPoint x="8" y="-48" as="offset" />
          </mxGeometry>
        </mxCell>
        <mxCell id="h-ptjZ4Be4jbQjIiCnFG-113" value="Review" style="shape=rect;strokeColor=#666666;fontColor=#333333;fontStyle=1;shadow=1;sketch=0;rounded=1;fillColor=#F8F9FA;" vertex="1" parent="h-ptjZ4Be4jbQjIiCnFG-109">
          <mxGeometry y="1" width="70" height="40" relative="1" as="geometry">
            <mxPoint x="86" y="-48" as="offset" />
          </mxGeometry>
        </mxCell>
        <mxCell id="h-ptjZ4Be4jbQjIiCnFG-114" value="&amp;lt;Classification Here&amp;gt;" style="rounded=0;whiteSpace=wrap;html=1;shadow=0;sketch=0;fontSize=12;align=center;fillColor=#FFFF33;" vertex="1" parent="h-ptjZ4Be4jbQjIiCnFG-109">
          <mxGeometry y="0.6296296296296298" width="530" height="18.51851851851852" as="geometry" />
        </mxCell>
        <mxCell id="h-ptjZ4Be4jbQjIiCnFG-115" value="This system is owned by Rocky and Bullwinkle.  It currently resides in ______, and hold records about ______.  " style="text;whiteSpace=wrap;fontSize=10;spacing=16;spacingTop=-4;resizeWidth=1;resizeHeight=1;" vertex="1" parent="h-ptjZ4Be4jbQjIiCnFG-109">
          <mxGeometry x="142.8846153846154" y="110.00407407407408" width="336.3461538461539" height="55.55555555555556" as="geometry" />
        </mxCell>
        <mxCell id="h-ptjZ4Be4jbQjIiCnFG-116" value="PPP/QQQ/RRR/ZZZ&#xa;" style="text;whiteSpace=wrap;fontSize=10;spacing=16;spacingTop=-4;resizeWidth=1;resizeHeight=1;" vertex="1" parent="h-ptjZ4Be4jbQjIiCnFG-109">
          <mxGeometry x="142.8846153846154" y="164.56037037037038" width="336.3461538461539" height="37.03703703703704" as="geometry" />
        </mxCell>
        <mxCell id="h-ptjZ4Be4jbQjIiCnFG-117" value="Bob Ross" style="text;whiteSpace=wrap;fontSize=10;spacing=16;spacingTop=-4;resizeWidth=1;resizeHeight=1;" vertex="1" parent="h-ptjZ4Be4jbQjIiCnFG-109">
          <mxGeometry x="142.8846153846154" y="193.33814814814815" width="336.3461538461539" height="37.03703703703704" as="geometry" />
        </mxCell>
        <mxCell id="h-ptjZ4Be4jbQjIiCnFG-118" value="Cloud" style="text;whiteSpace=wrap;fontSize=10;spacing=16;spacingTop=-4;resizeWidth=1;resizeHeight=1;" vertex="1" parent="h-ptjZ4Be4jbQjIiCnFG-109">
          <mxGeometry x="142.8846153846154" y="225.92592592592592" width="336.3461538461539" height="37.03703703703704" as="geometry" />
        </mxCell>
        <mxCell id="h-ptjZ4Be4jbQjIiCnFG-120" value="Spooky" style="text;whiteSpace=wrap;fontSize=10;spacing=16;spacingTop=-4;resizeWidth=1;resizeHeight=1;" vertex="1" parent="h-ptjZ4Be4jbQjIiCnFG-109">
          <mxGeometry x="140.0046153846154" y="252.4114814814815" width="336.3461538461539" height="37.03703703703704" as="geometry" />
        </mxCell>
        <mxCell id="h-ptjZ4Be4jbQjIiCnFG-121" value="RCS 12-34 10b; RCS 56-78 1a; FRCS 30-1a" style="text;whiteSpace=wrap;fontSize=10;spacing=16;spacingTop=-4;resizeWidth=1;resizeHeight=1;fontColor=#0645AD;fontStyle=0" vertex="1" parent="h-ptjZ4Be4jbQjIiCnFG-109">
          <mxGeometry x="140.0046153846154" y="285.92925925925925" width="336.3461538461539" height="37.03703703703704" as="geometry" />
        </mxCell>
        <mxCell id="h-ptjZ4Be4jbQjIiCnFG-122" value="Yes" style="text;whiteSpace=wrap;fontSize=10;spacing=16;spacingTop=-4;resizeWidth=1;resizeHeight=1;" vertex="1" parent="h-ptjZ4Be4jbQjIiCnFG-109">
          <mxGeometry x="142.8846153846154" y="315.92703703703705" width="336.3461538461539" height="37.03703703703704" as="geometry" />
        </mxCell>
        <mxCell id="h-ptjZ4Be4jbQjIiCnFG-123" value="US Persons" style="text;whiteSpace=wrap;fontSize=10;spacing=16;spacingTop=-4;resizeWidth=1;resizeHeight=1;" vertex="1" parent="h-ptjZ4Be4jbQjIiCnFG-109">
          <mxGeometry x="142.8846153846154" y="345.93481481481484" width="336.3461538461539" height="37.03703703703704" as="geometry" />
        </mxCell>
        <mxCell id="h-ptjZ4Be4jbQjIiCnFG-124" value="Rocky" style="text;whiteSpace=wrap;fontSize=10;spacing=16;spacingTop=-4;resizeWidth=1;resizeHeight=1;" vertex="1" parent="h-ptjZ4Be4jbQjIiCnFG-109">
          <mxGeometry x="142.8846153846154" y="375.93259259259264" width="336.3461538461539" height="37.03703703703704" as="geometry" />
        </mxCell>
        <mxCell id="h-ptjZ4Be4jbQjIiCnFG-125" value="Cindy-Luo Who" style="text;whiteSpace=wrap;fontSize=10;spacing=16;spacingTop=-4;resizeWidth=1;resizeHeight=1;" vertex="1" parent="h-ptjZ4Be4jbQjIiCnFG-109">
          <mxGeometry x="140.0046153846154" y="405.9325925925927" width="336.3461538461539" height="37.03703703703704" as="geometry" />
        </mxCell>
        <mxCell id="h-ptjZ4Be4jbQjIiCnFG-134" value="Records Eligible for Disposition" style="text;html=1;strokeColor=none;fillColor=none;align=left;verticalAlign=middle;whiteSpace=wrap;rounded=0;fontSize=14;fontStyle=1" vertex="1" parent="h-ptjZ4Be4jbQjIiCnFG-109">
          <mxGeometry x="10" y="90" width="280" height="20" as="geometry" />
        </mxCell>
        <mxCell id="h-ptjZ4Be4jbQjIiCnFG-126" value="" style="shape=ellipse;dashed=0;strokeColor=none;shadow=1;fontSize=13;align=center;verticalAlign=top;labelPosition=center;verticalLabelPosition=bottom;html=1;aspect=fixed;fillColor=#F8F9FA;" vertex="1" parent="h-ptjZ4Be4jbQjIiCnFG-108">
          <mxGeometry x="408.97637795275597" y="30" width="23.95275590551181" height="23.95275590551181" as="geometry" />
        </mxCell>
        <mxCell id="h-ptjZ4Be4jbQjIiCnFG-127" value="" style="dashed=0;html=1;shape=mxgraph.gmdl.edit;strokeColor=none;fillColor=#737373;shadow=0;" vertex="1" parent="h-ptjZ4Be4jbQjIiCnFG-126">
          <mxGeometry x="7.699100112485939" y="7.699100112485939" width="8.554555680539933" height="8.554555680539933" as="geometry" />
        </mxCell>
        <mxCell id="h-ptjZ4Be4jbQjIiCnFG-128" value="" style="shape=ellipse;dashed=0;strokeColor=none;shadow=1;fontSize=13;align=center;verticalAlign=top;labelPosition=center;verticalLabelPosition=bottom;html=1;aspect=fixed;fillColor=#F8F9FA;" vertex="1" parent="h-ptjZ4Be4jbQjIiCnFG-108">
          <mxGeometry x="498.2834645669294" y="30" width="23.95275590551181" height="23.95275590551181" as="geometry" />
        </mxCell>
        <mxCell id="h-ptjZ4Be4jbQjIiCnFG-129" value="" style="dashed=0;html=1;shape=mxgraph.gmdl.x;strokeColor=#737373;strokeWidth=2;shadow=0;" vertex="1" parent="h-ptjZ4Be4jbQjIiCnFG-128">
          <mxGeometry x="8.554555680539933" y="8.554555680539933" width="6.843644544431946" height="6.843644544431946" as="geometry" />
        </mxCell>
        <mxCell id="h-ptjZ4Be4jbQjIiCnFG-130" value="" style="shape=ellipse;dashed=0;strokeColor=none;shadow=1;fontSize=13;align=center;verticalAlign=top;labelPosition=center;verticalLabelPosition=bottom;html=1;aspect=fixed;rounded=1;sketch=0;fillColor=#F8F9FA;" vertex="1" parent="h-ptjZ4Be4jbQjIiCnFG-108">
          <mxGeometry x="439.85826771653564" y="30" width="23.95275590551181" height="23.95275590551181" as="geometry" />
        </mxCell>
        <mxCell id="h-ptjZ4Be4jbQjIiCnFG-131" value="" style="dashed=0;html=1;shape=mxgraph.gmdl.star;strokeColor=none;fillColor=#737373;shadow=0;" vertex="1" parent="h-ptjZ4Be4jbQjIiCnFG-130">
          <mxGeometry x="7.699100112485939" y="7.699100112485939" width="8.554555680539933" height="8.554555680539933" as="geometry" />
        </mxCell>
        <mxCell id="h-ptjZ4Be4jbQjIiCnFG-132" value="" style="shape=ellipse;dashed=0;strokeColor=none;shadow=1;fontSize=13;align=center;verticalAlign=top;labelPosition=center;verticalLabelPosition=bottom;html=1;aspect=fixed;rounded=1;sketch=0;fillColor=#F8F9FA;" vertex="1" parent="h-ptjZ4Be4jbQjIiCnFG-108">
          <mxGeometry x="469.0708661417325" y="30" width="23.95275590551181" height="23.95275590551181" as="geometry" />
        </mxCell>
        <mxCell id="h-ptjZ4Be4jbQjIiCnFG-133" value="" style="dashed=0;html=1;shape=mxgraph.gmdl.cloud;strokeColor=none;fillColor=#737373;shadow=0;" vertex="1" parent="h-ptjZ4Be4jbQjIiCnFG-132">
          <mxGeometry x="6.843644544431946" y="8.554555680539933" width="10.265466816647919" height="6.843644544431946" as="geometry" />
        </mxCell>
        <mxCell id="h-ptjZ4Be4jbQjIiCnFG-135" value="Approve" style="shape=rect;strokeColor=#666666;fontColor=#333333;fontStyle=1;shadow=1;sketch=0;rounded=1;fillColor=#F8F9FA;" vertex="1" parent="NLD5sfoXQgCFImdVpocD-1">
          <mxGeometry x="514.5" y="-208" width="70" height="40" as="geometry" />
        </mxCell>
        <mxCell id="h-ptjZ4Be4jbQjIiCnFG-136" value="" style="group" connectable="0" vertex="1" parent="NLD5sfoXQgCFImdVpocD-1">
          <mxGeometry x="560" y="190" width="530" height="500" as="geometry" />
        </mxCell>
        <mxCell id="h-ptjZ4Be4jbQjIiCnFG-137" value="System X" style="shape=rect;fillColor=#ffffff;strokeColor=#eeeeee;shadow=1;fontColor=#000000;fontSize=23;fontStyle=0;verticalAlign=top;spacingBottom=0;spacingLeft=16;spacingTop=20;align=left;rounded=0;" vertex="1" parent="h-ptjZ4Be4jbQjIiCnFG-136">
          <mxGeometry width="530" height="500" as="geometry" />
        </mxCell>
        <mxCell id="h-ptjZ4Be4jbQjIiCnFG-138" value="Guide: 123456/1258d25s8f22f" style="text;fontSize=12;fontStyle=4;verticalAlign=middle;spacingBottom=0;spacingLeft=16;resizeWidth=1;fontColor=#0645AD;" vertex="1" parent="h-ptjZ4Be4jbQjIiCnFG-137">
          <mxGeometry width="530" height="20" relative="1" as="geometry">
            <mxPoint y="59" as="offset" />
          </mxGeometry>
        </mxCell>
        <mxCell id="h-ptjZ4Be4jbQjIiCnFG-139" value="Description:&#xa;&#xa;&#xa;Originating Org:&#xa;&#xa;Data Steward:&#xa;&#xa;Location:&#xa;&#xa;Data Classification:&#xa;&#xa;RCS Value(s):&#xa;&#xa;PII:&#xa;&#xa;PII Type:&#xa;&#xa;System of Record:&#xa;&#xa;IMO Assigned:&#xa;" style="text;whiteSpace=wrap;fontSize=13;spacing=16;spacingTop=-4;resizeWidth=1;resizeHeight=1;fontStyle=1" vertex="1" parent="h-ptjZ4Be4jbQjIiCnFG-137">
          <mxGeometry width="163.07692307692312" height="333.3333333333333" relative="1" as="geometry">
            <mxPoint y="120" as="offset" />
          </mxGeometry>
        </mxCell>
        <mxCell id="h-ptjZ4Be4jbQjIiCnFG-140" value="Assign" style="shape=rect;strokeColor=#666666;fontColor=#333333;fontStyle=1;shadow=1;rounded=1;fillColor=#F8F9FA;" vertex="1" parent="h-ptjZ4Be4jbQjIiCnFG-137">
          <mxGeometry y="1" width="70" height="40" relative="1" as="geometry">
            <mxPoint x="8" y="-48" as="offset" />
          </mxGeometry>
        </mxCell>
        <mxCell id="h-ptjZ4Be4jbQjIiCnFG-141" value="Review" style="shape=rect;strokeColor=#666666;fontColor=#333333;fontStyle=1;shadow=1;sketch=0;rounded=1;fillColor=#F8F9FA;" vertex="1" parent="h-ptjZ4Be4jbQjIiCnFG-137">
          <mxGeometry y="1" width="70" height="40" relative="1" as="geometry">
            <mxPoint x="86" y="-48" as="offset" />
          </mxGeometry>
        </mxCell>
        <mxCell id="h-ptjZ4Be4jbQjIiCnFG-142" value="&amp;lt;Classification Here&amp;gt;" style="rounded=0;whiteSpace=wrap;html=1;shadow=0;sketch=0;fontSize=12;align=center;fillColor=#FFFF33;" vertex="1" parent="h-ptjZ4Be4jbQjIiCnFG-137">
          <mxGeometry y="0.6296296296296298" width="530" height="18.51851851851852" as="geometry" />
        </mxCell>
        <mxCell id="h-ptjZ4Be4jbQjIiCnFG-143" value="This system is owned by Rocky and Bullwinkle.  It currently resides in ______, and hold records about ______.  " style="text;whiteSpace=wrap;fontSize=10;spacing=16;spacingTop=-4;resizeWidth=1;resizeHeight=1;" vertex="1" parent="h-ptjZ4Be4jbQjIiCnFG-137">
          <mxGeometry x="142.8846153846154" y="110.00407407407408" width="336.3461538461539" height="55.55555555555556" as="geometry" />
        </mxCell>
        <mxCell id="h-ptjZ4Be4jbQjIiCnFG-144" value="PPP/QQQ/RRR/ZZZ&#xa;" style="text;whiteSpace=wrap;fontSize=10;spacing=16;spacingTop=-4;resizeWidth=1;resizeHeight=1;" vertex="1" parent="h-ptjZ4Be4jbQjIiCnFG-137">
          <mxGeometry x="142.8846153846154" y="164.56037037037038" width="336.3461538461539" height="37.03703703703704" as="geometry" />
        </mxCell>
        <mxCell id="h-ptjZ4Be4jbQjIiCnFG-145" value="Bob Ross" style="text;whiteSpace=wrap;fontSize=10;spacing=16;spacingTop=-4;resizeWidth=1;resizeHeight=1;" vertex="1" parent="h-ptjZ4Be4jbQjIiCnFG-137">
          <mxGeometry x="142.8846153846154" y="193.33814814814815" width="336.3461538461539" height="37.03703703703704" as="geometry" />
        </mxCell>
        <mxCell id="h-ptjZ4Be4jbQjIiCnFG-146" value="Cloud" style="text;whiteSpace=wrap;fontSize=10;spacing=16;spacingTop=-4;resizeWidth=1;resizeHeight=1;" vertex="1" parent="h-ptjZ4Be4jbQjIiCnFG-137">
          <mxGeometry x="142.8846153846154" y="225.92592592592592" width="336.3461538461539" height="37.03703703703704" as="geometry" />
        </mxCell>
        <mxCell id="h-ptjZ4Be4jbQjIiCnFG-147" value="Spooky" style="text;whiteSpace=wrap;fontSize=10;spacing=16;spacingTop=-4;resizeWidth=1;resizeHeight=1;" vertex="1" parent="h-ptjZ4Be4jbQjIiCnFG-137">
          <mxGeometry x="140.0046153846154" y="252.4114814814815" width="336.3461538461539" height="37.03703703703704" as="geometry" />
        </mxCell>
        <mxCell id="h-ptjZ4Be4jbQjIiCnFG-148" value="RCS 12-34 10b; RCS 56-78 1a; FRCS 30-1a" style="text;whiteSpace=wrap;fontSize=10;spacing=16;spacingTop=-4;resizeWidth=1;resizeHeight=1;fontColor=#0645AD;fontStyle=0" vertex="1" parent="h-ptjZ4Be4jbQjIiCnFG-137">
          <mxGeometry x="140.0046153846154" y="285.92925925925925" width="336.3461538461539" height="37.03703703703704" as="geometry" />
        </mxCell>
        <mxCell id="h-ptjZ4Be4jbQjIiCnFG-149" value="Yes" style="text;whiteSpace=wrap;fontSize=10;spacing=16;spacingTop=-4;resizeWidth=1;resizeHeight=1;" vertex="1" parent="h-ptjZ4Be4jbQjIiCnFG-137">
          <mxGeometry x="142.8846153846154" y="315.92703703703705" width="336.3461538461539" height="37.03703703703704" as="geometry" />
        </mxCell>
        <mxCell id="h-ptjZ4Be4jbQjIiCnFG-150" value="US Persons" style="text;whiteSpace=wrap;fontSize=10;spacing=16;spacingTop=-4;resizeWidth=1;resizeHeight=1;" vertex="1" parent="h-ptjZ4Be4jbQjIiCnFG-137">
          <mxGeometry x="142.8846153846154" y="345.93481481481484" width="336.3461538461539" height="37.03703703703704" as="geometry" />
        </mxCell>
        <mxCell id="h-ptjZ4Be4jbQjIiCnFG-151" value="Rocky" style="text;whiteSpace=wrap;fontSize=10;spacing=16;spacingTop=-4;resizeWidth=1;resizeHeight=1;" vertex="1" parent="h-ptjZ4Be4jbQjIiCnFG-137">
          <mxGeometry x="142.8846153846154" y="375.93259259259264" width="336.3461538461539" height="37.03703703703704" as="geometry" />
        </mxCell>
        <mxCell id="h-ptjZ4Be4jbQjIiCnFG-152" value="Cindy-Luo Who" style="text;whiteSpace=wrap;fontSize=10;spacing=16;spacingTop=-4;resizeWidth=1;resizeHeight=1;" vertex="1" parent="h-ptjZ4Be4jbQjIiCnFG-137">
          <mxGeometry x="140.0046153846154" y="405.9325925925927" width="336.3461538461539" height="37.03703703703704" as="geometry" />
        </mxCell>
        <mxCell id="h-ptjZ4Be4jbQjIiCnFG-153" value="Records Eligible for Disposition" style="text;html=1;strokeColor=none;fillColor=none;align=left;verticalAlign=middle;whiteSpace=wrap;rounded=0;fontSize=14;fontStyle=1" vertex="1" parent="h-ptjZ4Be4jbQjIiCnFG-137">
          <mxGeometry x="10" y="90" width="280" height="20" as="geometry" />
        </mxCell>
        <mxCell id="h-ptjZ4Be4jbQjIiCnFG-154" value="" style="shape=ellipse;dashed=0;strokeColor=none;shadow=1;fontSize=13;align=center;verticalAlign=top;labelPosition=center;verticalLabelPosition=bottom;html=1;aspect=fixed;fillColor=#F8F9FA;" vertex="1" parent="h-ptjZ4Be4jbQjIiCnFG-136">
          <mxGeometry x="408.97637795275597" y="30" width="23.95275590551181" height="23.95275590551181" as="geometry" />
        </mxCell>
        <mxCell id="h-ptjZ4Be4jbQjIiCnFG-155" value="" style="dashed=0;html=1;shape=mxgraph.gmdl.edit;strokeColor=none;fillColor=#737373;shadow=0;" vertex="1" parent="h-ptjZ4Be4jbQjIiCnFG-154">
          <mxGeometry x="7.699100112485939" y="7.699100112485939" width="8.554555680539933" height="8.554555680539933" as="geometry" />
        </mxCell>
        <mxCell id="h-ptjZ4Be4jbQjIiCnFG-156" value="" style="shape=ellipse;dashed=0;strokeColor=none;shadow=1;fontSize=13;align=center;verticalAlign=top;labelPosition=center;verticalLabelPosition=bottom;html=1;aspect=fixed;fillColor=#F8F9FA;" vertex="1" parent="h-ptjZ4Be4jbQjIiCnFG-136">
          <mxGeometry x="498.2834645669294" y="30" width="23.95275590551181" height="23.95275590551181" as="geometry" />
        </mxCell>
        <mxCell id="h-ptjZ4Be4jbQjIiCnFG-157" value="" style="dashed=0;html=1;shape=mxgraph.gmdl.x;strokeColor=#737373;strokeWidth=2;shadow=0;" vertex="1" parent="h-ptjZ4Be4jbQjIiCnFG-156">
          <mxGeometry x="8.554555680539933" y="8.554555680539933" width="6.843644544431946" height="6.843644544431946" as="geometry" />
        </mxCell>
        <mxCell id="h-ptjZ4Be4jbQjIiCnFG-158" value="" style="shape=ellipse;dashed=0;strokeColor=none;shadow=1;fontSize=13;align=center;verticalAlign=top;labelPosition=center;verticalLabelPosition=bottom;html=1;aspect=fixed;rounded=1;sketch=0;fillColor=#F8F9FA;" vertex="1" parent="h-ptjZ4Be4jbQjIiCnFG-136">
          <mxGeometry x="439.85826771653564" y="30" width="23.95275590551181" height="23.95275590551181" as="geometry" />
        </mxCell>
        <mxCell id="h-ptjZ4Be4jbQjIiCnFG-159" value="" style="dashed=0;html=1;shape=mxgraph.gmdl.star;strokeColor=none;fillColor=#737373;shadow=0;" vertex="1" parent="h-ptjZ4Be4jbQjIiCnFG-158">
          <mxGeometry x="7.699100112485939" y="7.699100112485939" width="8.554555680539933" height="8.554555680539933" as="geometry" />
        </mxCell>
        <mxCell id="h-ptjZ4Be4jbQjIiCnFG-160" value="" style="shape=ellipse;dashed=0;strokeColor=none;shadow=1;fontSize=13;align=center;verticalAlign=top;labelPosition=center;verticalLabelPosition=bottom;html=1;aspect=fixed;rounded=1;sketch=0;fillColor=#F8F9FA;" vertex="1" parent="h-ptjZ4Be4jbQjIiCnFG-136">
          <mxGeometry x="469.0708661417325" y="30" width="23.95275590551181" height="23.95275590551181" as="geometry" />
        </mxCell>
        <mxCell id="h-ptjZ4Be4jbQjIiCnFG-161" value="" style="dashed=0;html=1;shape=mxgraph.gmdl.cloud;strokeColor=none;fillColor=#737373;shadow=0;" vertex="1" parent="h-ptjZ4Be4jbQjIiCnFG-160">
          <mxGeometry x="6.843644544431946" y="8.554555680539933" width="10.265466816647919" height="6.843644544431946" as="geometry" />
        </mxCell>
        <mxCell id="h-ptjZ4Be4jbQjIiCnFG-162" value="Approve" style="shape=rect;strokeColor=#666666;fontColor=#333333;fontStyle=1;shadow=1;sketch=0;rounded=1;fillColor=#F8F9FA;" vertex="1" parent="NLD5sfoXQgCFImdVpocD-1">
          <mxGeometry x="725.5" y="641" width="70" height="40" as="geometry" />
        </mxCell>
      </root>
    </mxGraphModel>
  </diagram>
  <diagram id="NAyh17xM9u3DoC0DwgH5" name="Page-3">
    <mxGraphModel dx="2758" dy="1268" grid="1" gridSize="10" guides="1" tooltips="1" connect="1" arrows="1" fold="1" page="1" pageScale="1" pageWidth="1100" pageHeight="850" math="0" shadow="0">
      <root>
        <mxCell id="0FYbr9AXmoUbDTphG6Y3-0" />
        <mxCell id="0FYbr9AXmoUbDTphG6Y3-1" parent="0FYbr9AXmoUbDTphG6Y3-0" />
      </root>
    </mxGraphModel>
  </diagram>
</mxfile>
